<?xml version="1.0" encoding="utf-8"?>
<!-- Generator: Adobe Illustrator 28.2.0, SVG Export Plug-In . SVG Version: 6.00 Build 0)  -->
<svg version="1.1" id="Layer_1" xmlns="http://www.w3.org/2000/svg" xmlns:xlink="http://www.w3.org/1999/xlink" x="0px" y="0px"
	 viewBox="0 0 1920 1080" style="enable-background:new 0 0 1920 1080;" xml:space="preserve">
<style type="text/css">
	.st0{fill:#89D3E2;}
	.st1{opacity:0.65;fill:url(#SVGID_1_);}
	.st2{fill:#FAFBFB;}
	.st3{fill:url(#SVGID_00000003825061665086718830000005012206775832689319_);}
	.st4{fill:#42A047;}
	.st5{fill:#FECC81;}
	.st6{fill:#FFECB2;}
	.st7{fill:#9CCC65;}
	.st8{fill:#7CB342;}
	.st9{fill:#E2884B;}
	.st10{fill:#B86F3C;}
	.st11{fill:#679F42;}
	.st12{fill:#568B3E;}
	.st13{fill:#D75928;}
	.st14{fill:#E1E1E0;}
	.st15{opacity:0.2;fill:#212120;}
	.st16{fill:#783518;}
	.st17{fill:#BF4E28;}
	.st18{opacity:0.4;fill:url(#SVGID_00000044897534509282543530000012539556829808769454_);}
	.st19{opacity:0.4;fill:url(#SVGID_00000040560357917264138320000007766050895516291463_);}
	.st20{fill:#C24B27;}
	.st21{fill:#F37046;}
	.st22{fill:#94311F;}
	.st23{fill:#DCDBDB;}
	.st24{fill:#78261C;}
	.st25{opacity:0.7;fill:url(#SVGID_00000051342711140147041640000008260632775971725471_);}
	.st26{fill:#F5F5F6;}
	.st27{opacity:0.5;fill:url(#SVGID_00000045578714646697964320000004841743490243707278_);}
	.st28{opacity:0.5;fill:url(#SVGID_00000053541493979281112990000005045694860863595171_);}
	.st29{opacity:0.5;fill:url(#SVGID_00000036955589488964447170000008624992568474780348_);}
	.st30{opacity:0.5;fill:url(#SVGID_00000157298768563429655720000017130419045417377675_);}
	.st31{fill:#434343;}
	.st32{fill:#616261;}
	.st33{fill:#757576;}
	.st34{fill:#F05223;}
	.st35{fill:#FFFFFF;}
	.st36{opacity:0.4;fill:url(#SVGID_00000133522991274013613930000009649252348669876625_);}
	.st37{fill:none;}
	.st38{font-family:'Raleway-Black';}
	.st39{font-size:103.2103px;}
	.st40{font-size:51.6052px;}
	.st41{fill:#E44C25;}
	.st42{font-size:42.4231px;}
</style>
<g>
	<rect x="0.14" class="st0" width="1918.04" height="919.26"/>
	<linearGradient id="SVGID_1_" gradientUnits="userSpaceOnUse" x1="959.1529" y1="952.8669" x2="959.1529" y2="313.3988">
		<stop  offset="0.0272" style="stop-color:#89D3E2"/>
		<stop  offset="0.5726" style="stop-color:#52BACD"/>
		<stop  offset="1" style="stop-color:#00ACC1"/>
	</linearGradient>
	<polygon class="st1" points="1918.17,657 1918.17,928.08 0.14,928.08 0.14,596.33 167.46,596.33 167.46,657 241.14,657 
		241.14,486.77 284.23,486.77 331.24,446.94 496.24,446.94 496.24,618.92 595.67,618.92 595.67,334.28 825.12,334.28 825.12,277.94 
		839.37,277.94 839.37,334.28 909.34,334.28 909.34,824.96 984.22,824.96 984.22,564.29 1138.63,564.29 1138.63,406.66 
		1179.52,406.66 1179.52,352.89 1268.26,352.89 1268.26,406.66 1426.95,406.66 1426.95,657 1544.49,657 1544.49,762.95 
		1625.17,762.95 1625.17,486.77 1662.61,486.77 1662.61,446.94 1678.08,446.94 1678.08,486.77 1848.92,486.77 1848.92,657 	"/>
	<g>
		<path class="st2" d="M1542.18,341.29h2.67c3.91,0,7.08-2.68,7.08-5.98v-2.15c0-0.94,0.83-1.78,1.94-1.83
			c1.18-0.05,2.16,0.74,2.16,1.73v2.25c0,3.3,3.17,5.98,7.08,5.98h2.67c1.13,0,2.05,0.78,2.05,1.73l0,0c0,0.96-0.92,1.73-2.05,1.73
			h-2.67c-3.91,0-7.08,2.68-7.08,5.98v2.16c0,0.94-0.83,1.78-1.94,1.83c-1.18,0.05-2.16-0.74-2.16-1.73v-2.25
			c0-3.3-3.17-5.98-7.08-5.98h-2.67c-1.13,0-2.05-0.78-2.05-1.73l0,0C1540.12,342.07,1541.04,341.29,1542.18,341.29z"/>
		<path class="st2" d="M1385.92,151.67h2.67c3.91,0,7.08-2.68,7.08-5.98v-2.16c0-0.94,0.83-1.78,1.94-1.83
			c1.18-0.05,2.16,0.74,2.16,1.73v2.25c0,3.3,3.17,5.98,7.08,5.98h2.67c1.13,0,2.05,0.78,2.05,1.73l0,0c0,0.96-0.92,1.73-2.05,1.73
			h-2.67c-3.91,0-7.08,2.68-7.08,5.98v2.15c0,0.94-0.83,1.78-1.94,1.83c-1.18,0.05-2.16-0.74-2.16-1.73v-2.25
			c0-3.3-3.17-5.98-7.08-5.98h-2.67c-1.13,0-2.05-0.78-2.05-1.73l0,0C1383.87,152.45,1384.79,151.67,1385.92,151.67z"/>
		<path class="st2" d="M1657.74,250.27h2.67c3.91,0,7.08-2.68,7.08-5.98v-2.16c0-0.94,0.83-1.78,1.94-1.83
			c1.18-0.05,2.16,0.74,2.16,1.73v2.25c0,3.3,3.17,5.98,7.08,5.98h2.67c1.13,0,2.05,0.78,2.05,1.73l0,0c0,0.96-0.92,1.73-2.05,1.73
			h-2.67c-3.91,0-7.08,2.68-7.08,5.98v2.16c0,0.94-0.83,1.78-1.94,1.83c-1.18,0.05-2.16-0.74-2.16-1.73v-2.25
			c0-3.3-3.17-5.98-7.08-5.98h-2.67c-1.13,0-2.05-0.78-2.05-1.73l0,0C1655.68,251.04,1656.6,250.27,1657.74,250.27z"/>
		<path class="st2" d="M423.05,151.67h2.67c3.91,0,7.08-2.68,7.08-5.98v-2.16c0-0.94,0.83-1.78,1.94-1.83
			c1.18-0.05,2.16,0.74,2.16,1.73v2.25c0,3.3,3.17,5.98,7.08,5.98h2.67c1.13,0,2.05,0.78,2.05,1.73l0,0c0,0.96-0.92,1.73-2.05,1.73
			h-2.67c-3.91,0-7.08,2.68-7.08,5.98v2.15c0,0.94-0.83,1.78-1.94,1.83c-1.18,0.05-2.16-0.74-2.16-1.73v-2.25
			c0-3.3-3.17-5.98-7.08-5.98h-2.67c-1.13,0-2.05-0.78-2.05-1.73l0,0C420.99,152.45,421.91,151.67,423.05,151.67z"/>
		<path class="st2" d="M112.66,221.32h2.67c3.91,0,7.08-2.68,7.08-5.98v-2.16c0-0.94,0.83-1.78,1.94-1.83
			c1.18-0.05,2.16,0.74,2.16,1.73v2.25c0,3.3,3.17,5.98,7.08,5.98h2.67c1.13,0,2.05,0.78,2.05,1.73l0,0c0,0.96-0.92,1.73-2.05,1.73
			h-2.67c-3.91,0-7.08,2.68-7.08,5.98v2.16c0,0.94-0.83,1.78-1.94,1.83c-1.18,0.05-2.16-0.74-2.16-1.73v-2.25
			c0-3.3-3.17-5.98-7.08-5.98h-2.67c-1.13,0-2.05-0.78-2.05-1.73l0,0C110.61,222.1,111.53,221.32,112.66,221.32z"/>
		<path class="st2" d="M973.39,68.02h2.67c3.91,0,7.08-2.68,7.08-5.98v-2.16c0-0.94,0.83-1.78,1.94-1.83
			c1.18-0.05,2.16,0.74,2.16,1.73v2.25c0,3.3,3.17,5.98,7.08,5.98h2.67c1.13,0,2.05,0.78,2.05,1.73l0,0c0,0.96-0.92,1.73-2.05,1.73
			h-2.67c-3.91,0-7.08,2.68-7.08,5.98v2.16c0,0.94-0.83,1.78-1.94,1.83c-1.18,0.05-2.16-0.74-2.16-1.73v-2.25
			c0-3.3-3.17-5.98-7.08-5.98h-2.67c-1.13,0-2.05-0.78-2.05-1.73l0,0C971.34,68.8,972.26,68.02,973.39,68.02z"/>
		<path class="st2" d="M688.82,97.02h1.31c1.92,0,3.47-1.31,3.47-2.93v-1.06c0-0.46,0.41-0.87,0.95-0.9
			c0.58-0.03,1.06,0.36,1.06,0.85v1.11c0,1.62,1.55,2.93,3.47,2.93h1.31c0.56,0,1.01,0.38,1.01,0.85l0,0c0,0.47-0.45,0.85-1.01,0.85
			h-1.31c-1.92,0-3.47,1.31-3.47,2.93v1.06c0,0.46-0.41,0.87-0.95,0.9c-0.58,0.03-1.06-0.36-1.06-0.85v-1.11
			c0-1.62-1.55-2.93-3.47-2.93h-1.31c-0.56,0-1.01-0.38-1.01-0.85l0,0C687.81,97.4,688.26,97.02,688.82,97.02z"/>
		<path class="st2" d="M195.03,74.87h1.31c1.92,0,3.47-1.31,3.47-2.93v-1.06c0-0.46,0.41-0.87,0.95-0.9
			c0.58-0.03,1.06,0.36,1.06,0.85v1.1c0,1.62,1.55,2.93,3.47,2.93h1.31c0.56,0,1.01,0.38,1.01,0.85l0,0c0,0.47-0.45,0.85-1.01,0.85
			h-1.31c-1.92,0-3.47,1.31-3.47,2.93v1.06c0,0.46-0.41,0.87-0.95,0.9c-0.58,0.03-1.06-0.36-1.06-0.85V79.5
			c0-1.62-1.55-2.93-3.47-2.93h-1.31c-0.56,0-1.01-0.38-1.01-0.85l0,0C194.02,75.25,194.47,74.87,195.03,74.87z"/>
		<path class="st2" d="M1186.79,204.58h1.31c1.92,0,3.47-1.31,3.47-2.93v-1.06c0-0.46,0.41-0.87,0.95-0.9
			c0.58-0.03,1.06,0.36,1.06,0.85v1.11c0,1.62,1.55,2.93,3.47,2.93h1.31c0.56,0,1.01,0.38,1.01,0.85l0,0c0,0.47-0.45,0.85-1.01,0.85
			h-1.31c-1.92,0-3.47,1.31-3.47,2.93v1.06c0,0.46-0.41,0.87-0.95,0.9c-0.58,0.03-1.06-0.36-1.06-0.85v-1.11
			c0-1.62-1.55-2.93-3.47-2.93h-1.31c-0.56,0-1.01-0.38-1.01-0.85l0,0C1185.79,204.96,1186.24,204.58,1186.79,204.58z"/>
		<path class="st2" d="M1037.57,125.55h1.31c1.92,0,3.47-1.31,3.47-2.93v-1.06c0-0.46,0.41-0.87,0.95-0.9
			c0.58-0.03,1.06,0.36,1.06,0.85v1.1c0,1.62,1.55,2.93,3.47,2.93h1.31c0.56,0,1.01,0.38,1.01,0.85l0,0c0,0.47-0.45,0.85-1.01,0.85
			h-1.31c-1.92,0-3.47,1.31-3.47,2.93v1.06c0,0.46-0.41,0.87-0.95,0.9c-0.58,0.03-1.06-0.36-1.06-0.85v-1.11
			c0-1.62-1.55-2.93-3.47-2.93h-1.31c-0.56,0-1.01-0.38-1.01-0.85l0,0C1036.56,125.94,1037.02,125.55,1037.57,125.55z"/>
		<path class="st2" d="M1482.93,80.61h1.31c1.92,0,3.47-1.31,3.47-2.93v-1.06c0-0.46,0.41-0.87,0.95-0.9
			c0.58-0.03,1.06,0.36,1.06,0.85v1.1c0,1.62,1.55,2.93,3.47,2.93h1.31c0.56,0,1.01,0.38,1.01,0.85l0,0c0,0.47-0.45,0.85-1.01,0.85
			h-1.31c-1.92,0-3.47,1.31-3.47,2.93v1.06c0,0.46-0.41,0.87-0.95,0.9c-0.58,0.03-1.06-0.36-1.06-0.85v-1.11
			c0-1.62-1.55-2.93-3.47-2.93h-1.31c-0.56,0-1.01-0.38-1.01-0.85l0,0C1481.92,80.99,1482.37,80.61,1482.93,80.61z"/>
		<path class="st2" d="M1832,86.34h1.31c1.92,0,3.47-1.31,3.47-2.93v-1.06c0-0.46,0.41-0.87,0.95-0.9c0.58-0.03,1.06,0.36,1.06,0.85
			v1.11c0,1.62,1.55,2.93,3.47,2.93h1.31c0.56,0,1.01,0.38,1.01,0.85l0,0c0,0.47-0.45,0.85-1.01,0.85h-1.31
			c-1.92,0-3.47,1.31-3.47,2.93v1.06c0,0.46-0.41,0.87-0.95,0.9c-0.58,0.03-1.06-0.36-1.06-0.85v-1.11c0-1.62-1.55-2.93-3.47-2.93
			H1832c-0.56,0-1.01-0.38-1.01-0.85l0,0C1830.99,86.72,1831.44,86.34,1832,86.34z"/>
		<g>
			<path class="st2" d="M200.82,109.37c37.17,0,67.3,25.45,67.3,56.84h-134.6C133.52,134.82,163.65,109.37,200.82,109.37z"/>
			<path class="st2" d="M99.87,137.79c18.58,0,33.65,12.72,33.65,28.42h-67.3C66.22,150.51,81.28,137.79,99.87,137.79z"/>
		</g>
		<g>
			<path class="st2" d="M1770.48,109.37c37.17,0,67.3,25.45,67.3,56.84h-134.6C1703.19,134.82,1733.32,109.37,1770.48,109.37z"/>
			<path class="st2" d="M1669.54,137.79c18.58,0,33.65,12.72,33.65,28.42h-67.3C1635.89,150.51,1650.95,137.79,1669.54,137.79z"/>
		</g>
		<g>
			<path class="st2" d="M533.09,59.65c26.44,0,47.87,18.1,47.87,40.44h-95.75C485.22,77.75,506.65,59.65,533.09,59.65z"/>
			<path class="st2" d="M461.28,79.87c13.22,0,23.94,9.05,23.94,20.22h-47.87C437.35,88.92,448.06,79.87,461.28,79.87z"/>
		</g>
		<g>
			<path class="st2" d="M349.22,241.33c26.44,0,47.87,18.1,47.87,40.44h-95.75C301.35,259.43,322.78,241.33,349.22,241.33z"/>
			<path class="st2" d="M277.41,261.54c13.22,0,23.94,9.05,23.94,20.22h-47.87C253.47,270.6,264.19,261.54,277.41,261.54z"/>
		</g>
		<g>
			<path class="st2" d="M901.09,27.28c20.13,0,36.45,13.78,36.45,30.78h-72.89C864.64,41.06,880.96,27.28,901.09,27.28z"/>
			<path class="st2" d="M846.42,42.67c10.06,0,18.22,6.89,18.22,15.39H828.2C828.2,49.56,836.35,42.67,846.42,42.67z"/>
		</g>
		<g>
			<path class="st2" d="M1199.37,104.21c14.51,0,26.28,9.94,26.28,22.2h-52.56C1173.09,114.15,1184.86,104.21,1199.37,104.21z"/>
			<path class="st2" d="M1159.95,115.31c7.26,0,13.14,4.97,13.14,11.1h-26.28C1146.81,120.28,1152.7,115.31,1159.95,115.31z"/>
		</g>
		<g>
			<path class="st2" d="M1864.06,223.65c14.51,0,26.28,9.94,26.28,22.2h-52.56C1837.78,233.59,1849.55,223.65,1864.06,223.65z"/>
			<path class="st2" d="M1824.64,234.75c7.26,0,13.14,4.97,13.14,11.1h-26.28C1811.5,239.72,1817.39,234.75,1824.64,234.75z"/>
		</g>
	</g>
	
		<linearGradient id="SVGID_00000039815899450043282900000005900818735653572798_" gradientUnits="userSpaceOnUse" x1="960.9822" y1="649.202" x2="960.9822" y2="892.0939">
		<stop  offset="0" style="stop-color:#66BB6A"/>
		<stop  offset="0.268" style="stop-color:#64B967"/>
		<stop  offset="0.5382" style="stop-color:#5DB25D"/>
		<stop  offset="0.8087" style="stop-color:#51A950"/>
		<stop  offset="1" style="stop-color:#42A047"/>
	</linearGradient>
	<path style="fill:url(#SVGID_00000039815899450043282900000005900818735653572798_);" d="M1920,692.02v206.17H1.96V646.84
		c26.88-6.82,55.41-10.49,84.92-10.49c77.54,0,148.07,25.27,200.7,66.6c39.58-21.24,86.53-33.53,136.88-33.53
		c77.92,0,147.66,29.42,194.56,75.84c31.43-17.58,69.1-27.8,109.59-27.8c26.88,0,52.48,4.52,75.88,12.68
		c36.23-21.34,80.29-33.86,127.81-33.86c48.53,0,93.41,13.04,130.09,35.17c53.92-57.73,137.5-94.79,231.34-94.79
		c117,0,218.06,57.63,265.58,141.1c20.26-9.13,43.4-14.34,67.95-14.34c28.67,0,55.41,7.07,77.87,19.24
		c40.61-54.86,112.76-91.37,194.99-91.37C1906.81,691.29,1913.45,691.53,1920,692.02z"/>
	<rect x="0.14" y="785.99" class="st4" width="1918.04" height="294.01"/>
	<polygon class="st5" points="1423.96,1080 494.35,1080 804.59,867.9 1113.72,867.9 	"/>
	<polygon class="st6" points="1639.42,908.28 278.89,908.28 402.76,832.61 1515.55,832.61 	"/>
	<path class="st7" d="M1413.76,889.62c-25.73,0-46.58,17.61-46.58,39.34h93.16C1460.34,907.24,1439.49,889.62,1413.76,889.62z"/>
	<path class="st8" d="M1360.56,919.13c-12.86,0-23.29,8.81-23.29,19.67h46.58C1383.85,927.94,1373.42,919.13,1360.56,919.13z"/>
	<path class="st8" d="M430.74,909.42c-12.86,0-23.29,8.81-23.29,19.67h46.58C454.03,918.23,443.6,909.42,430.74,909.42z"/>
	<path class="st7" d="M376.54,899.59c-25.73,0-46.58,17.61-46.58,39.34h93.16C423.12,917.2,402.26,899.59,376.54,899.59z"/>
	<g>
		<rect x="167.7" y="847.24" class="st9" width="9.72" height="68.61"/>
		<rect x="177.42" y="847.24" class="st10" width="9.72" height="68.61"/>
		<ellipse class="st11" cx="177.42" cy="749.69" rx="77.55" ry="113.53"/>
		<path class="st12" d="M177.42,636.17v227.05c42.83,0,77.55-50.83,77.55-113.53C254.96,686.99,220.25,636.17,177.42,636.17z"/>
	</g>
	<g>
		<rect x="1631.11" y="921.06" class="st9" width="8.3" height="58.65"/>
		<rect x="1639.42" y="921.06" class="st10" width="8.3" height="58.65"/>
		<ellipse class="st11" cx="1639.42" cy="837.68" rx="66.28" ry="97.04"/>
		<path class="st12" d="M1639.42,740.65v194.07c36.61,0,66.28-43.44,66.28-97.04C1705.7,784.09,1676.02,740.65,1639.42,740.65z"/>
	</g>
	<g>
		<rect x="1832.56" y="805.36" class="st9" width="5.22" height="36.89"/>
		<rect x="1837.78" y="805.36" class="st10" width="5.22" height="36.89"/>
		<ellipse class="st11" cx="1837.78" cy="752.91" rx="41.7" ry="61.05"/>
		<path class="st12" d="M1837.78,691.86v122.09c23.03,0,41.7-27.33,41.7-61.05C1879.48,719.19,1860.81,691.86,1837.78,691.86z"/>
	</g>
	<g>
		<rect x="371.38" y="540.33" class="st13" width="433.6" height="343.76"/>
		<path class="st14" d="M368.59,875.49c-3.38,0-6.12,2.31-6.12,5.17v3.44h442.51v-8.61H368.59z"/>
		<g>
			<g>
				<g>
					<rect x="416.35" y="600.5" class="st14" width="93.21" height="96.42"/>
					<rect x="422.23" y="605.47" class="st0" width="81.45" height="86.5"/>
					<rect x="422.23" y="605.47" class="st15" width="81.45" height="2.65"/>
				</g>
			</g>
			<g>
				<polygon class="st2" points="503.69,636.91 503.69,640.07 462.71,605.47 466.45,605.47 				"/>
				<polygon class="st2" points="503.69,646.79 503.69,658.14 441.33,605.47 454.77,605.47 				"/>
			</g>
		</g>
		<g>
			<g>
				<g>
					<rect x="541.57" y="600.5" class="st14" width="93.21" height="96.42"/>
					<rect x="547.45" y="605.47" class="st0" width="81.45" height="86.5"/>
					<rect x="547.45" y="605.47" class="st15" width="81.45" height="2.65"/>
				</g>
			</g>
			<g>
				<polygon class="st2" points="628.91,636.91 628.91,640.07 587.93,605.47 591.67,605.47 				"/>
				<polygon class="st2" points="628.91,646.79 628.91,658.14 566.55,605.47 579.99,605.47 				"/>
			</g>
		</g>
		<g>
			<g>
				<g>
					<rect x="666.79" y="600.5" class="st14" width="93.21" height="96.42"/>
					<rect x="672.67" y="605.47" class="st0" width="81.45" height="86.5"/>
					<rect x="672.67" y="605.47" class="st15" width="81.45" height="2.65"/>
				</g>
			</g>
			<g>
				<polygon class="st2" points="754.13,636.91 754.13,640.07 713.15,605.47 716.89,605.47 				"/>
				<polygon class="st2" points="754.13,646.79 754.13,658.14 691.76,605.47 705.2,605.47 				"/>
			</g>
		</g>
		<g>
			<g>
				<g>
					<rect x="416.35" y="727.49" class="st14" width="93.21" height="96.42"/>
					<rect x="422.23" y="732.45" class="st0" width="81.45" height="86.5"/>
					<rect x="422.23" y="732.45" class="st15" width="81.45" height="2.65"/>
				</g>
			</g>
			<g>
				<polygon class="st2" points="503.69,763.9 503.69,767.06 462.71,732.45 466.45,732.45 				"/>
				<polygon class="st2" points="503.69,773.77 503.69,785.12 441.33,732.45 454.77,732.45 				"/>
			</g>
		</g>
		<g>
			<g>
				<g>
					<rect x="541.57" y="727.49" class="st14" width="93.21" height="96.42"/>
					<rect x="547.45" y="732.45" class="st0" width="81.45" height="86.5"/>
					<rect x="547.45" y="732.45" class="st15" width="81.45" height="2.65"/>
				</g>
			</g>
			<g>
				<polygon class="st2" points="628.91,763.9 628.91,767.06 587.93,732.45 591.67,732.45 				"/>
				<polygon class="st2" points="628.91,773.77 628.91,785.12 566.55,732.45 579.99,732.45 				"/>
			</g>
		</g>
		<g>
			<g>
				<g>
					<rect x="666.79" y="727.49" class="st14" width="93.21" height="96.42"/>
					<rect x="672.67" y="732.45" class="st0" width="81.45" height="86.5"/>
					<rect x="672.67" y="732.45" class="st15" width="81.45" height="2.65"/>
				</g>
			</g>
			<g>
				<polygon class="st2" points="754.13,763.9 754.13,767.06 713.15,732.45 716.89,732.45 				"/>
				<polygon class="st2" points="754.13,773.77 754.13,785.12 691.76,732.45 705.2,732.45 				"/>
			</g>
		</g>
		<polygon class="st16" points="804.98,516.07 371.38,516.07 342.71,564.58 804.98,564.58 		"/>
		<g>
			<rect x="636.4" y="586.75" class="st17" width="12.96" height="6"/>
			<rect x="652.22" y="586.75" class="st17" width="12.96" height="6"/>
			<rect x="644.02" y="595.17" class="st17" width="12.96" height="6"/>
			
				<rect x="644.02" y="578.34" transform="matrix(-1 -1.224647e-16 1.224647e-16 -1 1301 1162.6731)" class="st17" width="12.96" height="6"/>
		</g>
		<g>
			<g>
				<rect x="669.47" y="843.7" class="st17" width="12.96" height="6"/>
				<rect x="685.29" y="843.7" class="st17" width="12.96" height="6"/>
				<rect x="677.09" y="852.11" class="st17" width="12.96" height="6"/>
				
					<rect x="677.09" y="835.28" transform="matrix(-1 -1.224647e-16 1.224647e-16 -1 1367.1426 1676.5643)" class="st17" width="12.96" height="6"/>
			</g>
			<g>
				<rect x="701.1" y="843.7" class="st17" width="12.96" height="6"/>
				<rect x="692.91" y="852.11" class="st17" width="12.96" height="6"/>
				
					<rect x="692.91" y="835.28" transform="matrix(-1 -1.224647e-16 1.224647e-16 -1 1398.7703 1676.5643)" class="st17" width="12.96" height="6"/>
			</g>
		</g>
		<g>
			<g>
				<rect x="581.7" y="705" class="st17" width="12.96" height="6"/>
				<rect x="597.51" y="705" class="st17" width="12.95" height="6"/>
				<rect x="589.32" y="713.42" class="st17" width="12.96" height="6"/>
			</g>
			<g>
				<rect x="565.89" y="705" class="st17" width="12.96" height="6"/>
				<rect x="573.51" y="713.42" class="st17" width="12.96" height="6"/>
			</g>
		</g>
		<g>
			
				<rect x="417.78" y="583.75" transform="matrix(-1 -1.224647e-16 1.224647e-16 -1 848.5227 1173.5032)" class="st17" width="12.96" height="6"/>
			
				<rect x="401.97" y="583.75" transform="matrix(-1 -1.224647e-16 1.224647e-16 -1 816.8953 1173.5032)" class="st17" width="12.96" height="6"/>
			
				<rect x="410.16" y="575.34" transform="matrix(-1 -1.224647e-16 1.224647e-16 -1 833.2822 1156.672)" class="st17" width="12.96" height="6"/>
		</g>
		
			<linearGradient id="SVGID_00000096778424019777539020000018141545166726833039_" gradientUnits="userSpaceOnUse" x1="587.671" y1="710.6995" x2="571.0798" y2="523.1834">
			<stop  offset="0.534" style="stop-color:#FFFFFF;stop-opacity:0"/>
			<stop  offset="0.6301" style="stop-color:#B9B9B9;stop-opacity:0.1443"/>
			<stop  offset="0.7292" style="stop-color:#787878;stop-opacity:0.2932"/>
			<stop  offset="0.8194" style="stop-color:#444444;stop-opacity:0.4287"/>
			<stop  offset="0.8975" style="stop-color:#1F1F1F;stop-opacity:0.546"/>
			<stop  offset="0.9603" style="stop-color:#080808;stop-opacity:0.6403"/>
			<stop  offset="1" style="stop-color:#000000;stop-opacity:0.7"/>
		</linearGradient>
		
			<rect x="371.38" y="564.93" style="opacity:0.4;fill:url(#SVGID_00000096778424019777539020000018141545166726833039_);" width="433.6" height="302.97"/>
		
			<rect x="1113.33" y="540.33" transform="matrix(-1 -1.224647e-16 1.224647e-16 -1 2660.2581 1424.4159)" class="st13" width="433.6" height="343.76"/>
		<g>
			<g>
				<g>
					<rect x="1158.31" y="600.5" class="st14" width="93.21" height="96.42"/>
					<rect x="1164.18" y="605.47" class="st0" width="81.45" height="86.5"/>
					<rect x="1164.18" y="605.47" class="st15" width="81.45" height="2.65"/>
				</g>
			</g>
			<g>
				<polygon class="st2" points="1245.64,636.91 1245.64,640.07 1204.66,605.47 1208.41,605.47 				"/>
				<polygon class="st2" points="1245.64,646.79 1245.64,658.14 1183.28,605.47 1196.72,605.47 				"/>
			</g>
		</g>
		<g>
			<g>
				<g>
					<rect x="1283.53" y="600.5" class="st14" width="93.21" height="96.42"/>
					<rect x="1289.4" y="605.47" class="st0" width="81.45" height="86.5"/>
					<rect x="1289.4" y="605.47" class="st15" width="81.45" height="2.65"/>
				</g>
			</g>
			<g>
				<polygon class="st2" points="1370.86,636.91 1370.86,640.07 1329.88,605.47 1333.63,605.47 				"/>
				<polygon class="st2" points="1370.86,646.79 1370.86,658.14 1308.5,605.47 1321.94,605.47 				"/>
			</g>
		</g>
		<g>
			<g>
				<g>
					<rect x="1408.75" y="600.5" class="st14" width="93.21" height="96.42"/>
					<rect x="1414.62" y="605.47" class="st0" width="81.45" height="86.5"/>
					<rect x="1414.62" y="605.47" class="st15" width="81.45" height="2.65"/>
				</g>
			</g>
			<g>
				<polygon class="st2" points="1496.08,636.91 1496.08,640.07 1455.1,605.47 1458.84,605.47 				"/>
				<polygon class="st2" points="1496.08,646.79 1496.08,658.14 1433.72,605.47 1447.16,605.47 				"/>
			</g>
		</g>
		<g>
			<g>
				<g>
					<rect x="1158.31" y="727.49" class="st14" width="93.21" height="96.42"/>
					<rect x="1164.18" y="732.45" class="st0" width="81.45" height="86.5"/>
					<rect x="1164.18" y="732.45" class="st15" width="81.45" height="2.65"/>
				</g>
			</g>
			<g>
				<polygon class="st2" points="1245.64,763.9 1245.64,767.06 1204.66,732.45 1208.41,732.45 				"/>
				<polygon class="st2" points="1245.64,773.77 1245.64,785.12 1183.28,732.45 1196.72,732.45 				"/>
			</g>
		</g>
		<g>
			<g>
				<g>
					<rect x="1283.53" y="727.49" class="st14" width="93.21" height="96.42"/>
					<rect x="1289.4" y="732.45" class="st0" width="81.45" height="86.5"/>
					<rect x="1289.4" y="732.45" class="st15" width="81.45" height="2.65"/>
				</g>
			</g>
			<g>
				<polygon class="st2" points="1370.86,763.9 1370.86,767.06 1329.88,732.45 1333.63,732.45 				"/>
				<polygon class="st2" points="1370.86,773.77 1370.86,785.12 1308.5,732.45 1321.94,732.45 				"/>
			</g>
		</g>
		<g>
			<g>
				<g>
					<rect x="1408.75" y="727.49" class="st14" width="93.21" height="96.42"/>
					<rect x="1414.62" y="732.45" class="st0" width="81.45" height="86.5"/>
					<rect x="1414.62" y="732.45" class="st15" width="81.45" height="2.65"/>
				</g>
			</g>
			<g>
				<polygon class="st2" points="1496.08,763.9 1496.08,767.06 1455.1,732.45 1458.84,732.45 				"/>
				<polygon class="st2" points="1496.08,773.77 1496.08,785.12 1433.72,732.45 1447.16,732.45 				"/>
			</g>
		</g>
		<polygon class="st16" points="1113.33,516.07 1546.93,516.07 1575.59,564.58 1113.33,564.58 		"/>
		<path class="st14" d="M1549.72,875.49c3.38,0,6.12,2.31,6.12,5.17v3.44h-442.51v-8.61H1549.72z"/>
		<g>
			<g>
				<rect x="1392.33" y="849.11" class="st17" width="12.96" height="6"/>
				<rect x="1408.14" y="849.11" class="st17" width="12.96" height="6"/>
				<rect x="1399.95" y="857.53" class="st17" width="12.96" height="6"/>
				
					<rect x="1399.95" y="840.7" transform="matrix(-1 -1.224647e-16 1.224647e-16 -1 2812.8557 1687.3944)" class="st17" width="12.96" height="6"/>
			</g>
			<g>
				<rect x="1423.96" y="849.11" class="st17" width="12.95" height="6"/>
				<rect x="1415.76" y="857.53" class="st17" width="12.96" height="6"/>
				
					<rect x="1415.76" y="840.7" transform="matrix(-1 -1.224647e-16 1.224647e-16 -1 2844.4834 1687.3944)" class="st17" width="12.96" height="6"/>
			</g>
		</g>
		<g>
			<rect x="1253.13" y="710.41" class="st17" width="12.96" height="6"/>
			<rect x="1268.95" y="710.41" class="st17" width="12.96" height="6"/>
			<rect x="1260.75" y="718.83" class="st17" width="12.96" height="6"/>
			
				<rect x="1260.75" y="702" transform="matrix(-1 -1.224647e-16 1.224647e-16 -1 2534.4648 1409.9988)" class="st17" width="12.96" height="6"/>
		</g>
		<g>
			<g>
				<rect x="1207.98" y="841.9" class="st17" width="12.95" height="6"/>
				<rect x="1223.79" y="841.9" class="st17" width="12.96" height="6"/>
				<rect x="1215.6" y="850.32" class="st17" width="12.95" height="6"/>
			</g>
			<g>
				<rect x="1192.17" y="841.9" class="st17" width="12.96" height="6"/>
				<rect x="1199.79" y="850.32" class="st17" width="12.96" height="6"/>
			</g>
		</g>
		<g>
			
				<rect x="1517.76" y="582.54" transform="matrix(-1 -1.224647e-16 1.224647e-16 -1 3048.4846 1171.0887)" class="st17" width="12.96" height="6"/>
			
				<rect x="1501.95" y="582.54" transform="matrix(-1 -1.224647e-16 1.224647e-16 -1 3016.8574 1171.0887)" class="st17" width="12.96" height="6"/>
			
				<rect x="1510.14" y="574.13" transform="matrix(-1 -1.224647e-16 1.224647e-16 -1 3033.2441 1154.2576)" class="st17" width="12.96" height="6"/>
		</g>
		<g>
			
				<rect x="1247.07" y="582.54" transform="matrix(-1 -1.224647e-16 1.224647e-16 -1 2507.0852 1171.0887)" class="st17" width="12.95" height="6"/>
			
				<rect x="1231.25" y="582.54" transform="matrix(-1 -1.224647e-16 1.224647e-16 -1 2475.4578 1171.0887)" class="st17" width="12.96" height="6"/>
			
				<rect x="1239.44" y="574.13" transform="matrix(-1 -1.224647e-16 1.224647e-16 -1 2491.8447 1154.2576)" class="st17" width="12.95" height="6"/>
		</g>
		
			<linearGradient id="SVGID_00000106826750057235085900000004652834325203552155_" gradientUnits="userSpaceOnUse" x1="1396.6215" y1="785.6143" x2="1193.3253" y2="573.1696">
			<stop  offset="0.1007" style="stop-color:#FFFFFF;stop-opacity:0"/>
			<stop  offset="0.286" style="stop-color:#B9B9B9;stop-opacity:0.1443"/>
			<stop  offset="0.4773" style="stop-color:#787878;stop-opacity:0.2932"/>
			<stop  offset="0.6515" style="stop-color:#444444;stop-opacity:0.4287"/>
			<stop  offset="0.8022" style="stop-color:#1F1F1F;stop-opacity:0.546"/>
			<stop  offset="0.9234" style="stop-color:#080808;stop-opacity:0.6403"/>
			<stop  offset="1" style="stop-color:#000000;stop-opacity:0.7"/>
		</linearGradient>
		
			<rect x="1113.27" y="564.58" style="opacity:0.4;fill:url(#SVGID_00000106826750057235085900000004652834325203552155_);" width="433.6" height="302.97"/>
		<rect x="804.98" y="598.17" class="st20" width="308.35" height="285.92"/>
		<polygon class="st21" points="959.15,416.41 775.7,508.61 775.7,671.3 1142.61,671.3 1142.61,508.61 		"/>
		<path class="st22" d="M959.15,727.49L959.15,727.49c-36.34,0-65.81,24.88-65.81,55.58v87.38h131.61v-87.38
			C1024.96,752.37,995.5,727.49,959.15,727.49z"/>
		<path class="st23" d="M1034.52,870.45H883.78c-3.75,0-6.79,2.57-6.79,5.73v7.91h164.31v-7.91
			C1041.31,873.01,1038.27,870.45,1034.52,870.45z"/>
		<path class="st24" d="M1024.96,783.07c0-30.7-29.46-55.58-65.81-55.58h0c-36.34,0-65.81,24.88-65.81,55.58v87.38l131.61-82.84
			V783.07z"/>
		
			<linearGradient id="SVGID_00000092447241593136922840000005360095070590293893_" gradientUnits="userSpaceOnUse" x1="977.5729" y1="869.1494" x2="936.5812" y2="665.6257">
			<stop  offset="0" style="stop-color:#FFFFFF;stop-opacity:0"/>
			<stop  offset="1" style="stop-color:#000000;stop-opacity:0.7"/>
		</linearGradient>
		
			<rect x="804.98" y="671.3" style="opacity:0.7;fill:url(#SVGID_00000092447241593136922840000005360095070590293893_);" width="308.35" height="212.79"/>
		<g>
			<rect x="789.52" y="701.91" class="st26" width="30.92" height="151.56"/>
			<path class="st14" d="M824.57,853.47h-39.18c-2.5,0-4.53,1.71-4.53,3.83v9.58h48.24v-9.58
				C829.1,855.19,827.07,853.47,824.57,853.47z"/>
			<path class="st26" d="M829.63,866.88h-49.31c-2.55,0-4.62,1.75-4.62,3.9v13.31h58.56v-13.31
				C834.26,868.63,832.19,866.88,829.63,866.88z"/>
			<path class="st14" d="M780.86,688.51v9.58c0,2.11,2.03,3.83,4.53,3.83h39.18c2.5,0,4.53-1.71,4.53-3.83v-9.58H780.86z"/>
			<path class="st26" d="M775.7,671.3v13.31c0,2.16,2.07,3.9,4.62,3.9h49.31c2.55,0,4.62-1.75,4.62-3.9V671.3H775.7z"/>
			
				<linearGradient id="SVGID_00000065795006062754207280000005244707551997361334_" gradientUnits="userSpaceOnUse" x1="802.1935" y1="766.7767" x2="787.5706" y2="709.4545">
				<stop  offset="0" style="stop-color:#FFFFFF;stop-opacity:0"/>
				<stop  offset="0.0864" style="stop-color:#F7F7F7;stop-opacity:0.0605"/>
				<stop  offset="0.2174" style="stop-color:#E2E2E2;stop-opacity:0.1522"/>
				<stop  offset="0.3768" style="stop-color:#C0C0C0;stop-opacity:0.2638"/>
				<stop  offset="0.5584" style="stop-color:#919191;stop-opacity:0.3909"/>
				<stop  offset="0.7589" style="stop-color:#535353;stop-opacity:0.5312"/>
				<stop  offset="0.9721" style="stop-color:#0A0A0A;stop-opacity:0.6805"/>
				<stop  offset="1" style="stop-color:#000000;stop-opacity:0.7"/>
			</linearGradient>
			
				<rect x="789.52" y="701.91" style="opacity:0.5;fill:url(#SVGID_00000065795006062754207280000005244707551997361334_);" width="30.92" height="151.56"/>
		</g>
		<g>
			<rect x="1097.87" y="701.91" class="st26" width="30.92" height="151.56"/>
			<path class="st14" d="M1132.92,853.47h-39.18c-2.5,0-4.53,1.71-4.53,3.83v9.58h48.24v-9.58
				C1137.45,855.19,1135.42,853.47,1132.92,853.47z"/>
			<path class="st26" d="M1137.98,866.88h-49.31c-2.55,0-4.62,1.75-4.62,3.9v13.31h58.56v-13.31
				C1142.61,868.63,1140.54,866.88,1137.98,866.88z"/>
			<path class="st14" d="M1089.21,688.51v9.58c0,2.11,2.03,3.83,4.53,3.83h39.18c2.5,0,4.53-1.71,4.53-3.83v-9.58H1089.21z"/>
			<path class="st26" d="M1084.05,671.3v13.31c0,2.16,2.07,3.9,4.62,3.9h49.31c2.55,0,4.62-1.75,4.62-3.9V671.3H1084.05z"/>
			
				<linearGradient id="SVGID_00000072274008765948104100000017348589545954089134_" gradientUnits="userSpaceOnUse" x1="1110.5426" y1="766.7767" x2="1095.9196" y2="709.4545">
				<stop  offset="0" style="stop-color:#FFFFFF;stop-opacity:0"/>
				<stop  offset="0.0864" style="stop-color:#F7F7F7;stop-opacity:0.0605"/>
				<stop  offset="0.2174" style="stop-color:#E2E2E2;stop-opacity:0.1522"/>
				<stop  offset="0.3768" style="stop-color:#C0C0C0;stop-opacity:0.2638"/>
				<stop  offset="0.5584" style="stop-color:#919191;stop-opacity:0.3909"/>
				<stop  offset="0.7589" style="stop-color:#535353;stop-opacity:0.5312"/>
				<stop  offset="0.9721" style="stop-color:#0A0A0A;stop-opacity:0.6805"/>
				<stop  offset="1" style="stop-color:#000000;stop-opacity:0.7"/>
			</linearGradient>
			
				<rect x="1097.87" y="701.91" style="opacity:0.5;fill:url(#SVGID_00000072274008765948104100000017348589545954089134_);" width="30.92" height="151.56"/>
		</g>
		
			<linearGradient id="SVGID_00000153680465953784400440000018336278041674937761_" gradientUnits="userSpaceOnUse" x1="806.2925" y1="692.1748" x2="804.3743" y2="671.5217">
			<stop  offset="0" style="stop-color:#FFFFFF;stop-opacity:0"/>
			<stop  offset="0.0792" style="stop-color:#F1F1F1;stop-opacity:0.065"/>
			<stop  offset="0.2301" style="stop-color:#CBCBCB;stop-opacity:0.1889"/>
			<stop  offset="0.4369" style="stop-color:#8D8D8D;stop-opacity:0.3588"/>
			<stop  offset="0.689" style="stop-color:#3A3A3A;stop-opacity:0.5659"/>
			<stop  offset="0.8524" style="stop-color:#000000;stop-opacity:0.7"/>
		</linearGradient>
		<path style="opacity:0.5;fill:url(#SVGID_00000153680465953784400440000018336278041674937761_);" d="M775.7,671.3v13.31
			c0,2.16,2.07,3.9,4.62,3.9h49.31c2.55,0,4.62-1.75,4.62-3.9V671.3H775.7z"/>
		
			<linearGradient id="SVGID_00000104704276800614663460000007983209462195561366_" gradientUnits="userSpaceOnUse" x1="1114.6414" y1="692.1748" x2="1112.7231" y2="671.5217">
			<stop  offset="0" style="stop-color:#FFFFFF;stop-opacity:0"/>
			<stop  offset="0.0792" style="stop-color:#F1F1F1;stop-opacity:0.065"/>
			<stop  offset="0.2301" style="stop-color:#CBCBCB;stop-opacity:0.1889"/>
			<stop  offset="0.4369" style="stop-color:#8D8D8D;stop-opacity:0.3588"/>
			<stop  offset="0.689" style="stop-color:#3A3A3A;stop-opacity:0.5659"/>
			<stop  offset="0.8524" style="stop-color:#000000;stop-opacity:0.7"/>
		</linearGradient>
		<path style="opacity:0.5;fill:url(#SVGID_00000104704276800614663460000007983209462195561366_);" d="M1084.05,671.3v13.31
			c0,2.16,2.07,3.9,4.62,3.9h49.31c2.55,0,4.62-1.75,4.62-3.9V671.3H1084.05z"/>
		<path class="st26" d="M1142.81,664.72H775.5c-4.3,0-7.79,2.95-7.79,6.58c0,3.63,3.49,6.58,7.79,6.58h367.31
			c4.3,0,7.79-2.95,7.79-6.58C1150.6,667.66,1147.11,664.72,1142.81,664.72z"/>
		<polygon class="st16" points="959.15,397.44 760,497.53 775.7,508.61 959.15,416.41 1142.61,508.61 1158.31,497.53 		"/>
		<g>
			<path class="st31" d="M664.72,512.24h-29.4c-0.99,0-1.79,0.68-1.79,1.51v2.31h32.98v-2.31
				C666.51,512.92,665.71,512.24,664.72,512.24z"/>
			<rect x="636.53" y="499.1" class="st32" width="26.99" height="13.15"/>
			<rect x="635.33" y="495.51" class="st33" width="29.39" height="3.59"/>
		</g>
		<g>
			<path class="st31" d="M540.54,512.24h-29.4c-0.99,0-1.79,0.68-1.79,1.51v2.31h32.98v-2.31
				C542.33,512.92,541.53,512.24,540.54,512.24z"/>
			<rect x="512.35" y="499.1" class="st32" width="26.99" height="13.15"/>
			<rect x="511.15" y="495.51" class="st33" width="29.39" height="3.59"/>
		</g>
		<g>
			<path class="st31" d="M1253.58,512.24h29.4c0.99,0,1.79,0.68,1.79,1.51v2.31h-32.98v-2.31
				C1251.79,512.92,1252.59,512.24,1253.58,512.24z"/>
			
				<rect x="1254.79" y="499.1" transform="matrix(-1 -1.224647e-16 1.224647e-16 -1 2536.5669 1011.3379)" class="st32" width="26.99" height="13.15"/>
			
				<rect x="1253.59" y="495.51" transform="matrix(-1 -1.224647e-16 1.224647e-16 -1 2536.5669 994.6059)" class="st33" width="29.39" height="3.59"/>
		</g>
		<g>
			<path class="st31" d="M1377.77,512.24h29.4c0.99,0,1.79,0.68,1.79,1.51v2.31h-32.98v-2.31
				C1375.97,512.92,1376.78,512.24,1377.77,512.24z"/>
			
				<rect x="1378.97" y="499.1" transform="matrix(-1 -1.224647e-16 1.224647e-16 -1 2784.9319 1011.3379)" class="st32" width="26.99" height="13.15"/>
			
				<rect x="1377.77" y="495.51" transform="matrix(-1 -1.224647e-16 1.224647e-16 -1 2784.9321 994.6059)" class="st33" width="29.39" height="3.59"/>
		</g>
		<g>
			<rect x="808.91" y="548.1" class="st34" width="22.83" height="10.58"/>
			<rect x="836.78" y="548.1" class="st34" width="22.83" height="10.58"/>
			<rect x="822.34" y="562.93" class="st34" width="22.83" height="10.58"/>
			
				<rect x="822.34" y="533.27" transform="matrix(-1 -1.224647e-16 1.224647e-16 -1 1667.5046 1077.1138)" class="st34" width="22.83" height="10.58"/>
		</g>
		<g>
			<g>
				<rect x="1029.08" y="602.83" class="st34" width="22.83" height="10.58"/>
				<rect x="1056.95" y="602.83" class="st34" width="22.83" height="10.58"/>
				<rect x="1042.51" y="617.66" class="st34" width="22.83" height="10.58"/>
				
					<rect x="1042.51" y="588" transform="matrix(-1 -1.224647e-16 1.224647e-16 -1 2107.8511 1186.58)" class="st34" width="22.83" height="10.58"/>
			</g>
			<g>
				<rect x="1084.82" y="602.83" class="st34" width="22.83" height="10.58"/>
				<rect x="1070.38" y="617.66" class="st34" width="22.83" height="10.58"/>
				
					<rect x="1070.38" y="588" transform="matrix(-1 -1.224647e-16 1.224647e-16 -1 2163.5898 1186.58)" class="st34" width="22.83" height="10.58"/>
			</g>
		</g>
		<g>
			
				<rect x="1027.48" y="497.64" transform="matrix(-1 -1.224647e-16 1.224647e-16 -1 2077.7859 1005.8519)" class="st34" width="22.83" height="10.58"/>
			
				<rect x="999.61" y="497.64" transform="matrix(-1 -1.224647e-16 1.224647e-16 -1 2022.0471 1005.8519)" class="st34" width="22.83" height="10.58"/>
			
				<rect x="1014.05" y="482.81" transform="matrix(-1 -1.224647e-16 1.224647e-16 -1 2050.9268 976.1893)" class="st34" width="22.83" height="10.58"/>
		</g>
		<g>
			<ellipse class="st31" cx="959.15" cy="558.68" rx="54.98" ry="46.43"/>
			<ellipse class="st35" cx="959.15" cy="558.68" rx="45.87" ry="38.75"/>
			<rect x="957.65" y="523.27" class="st31" width="3.01" height="7.98"/>
			<polygon class="st31" points="983.18,540.18 981.05,538.38 987.74,532.74 989.86,534.54 			"/>
			
				<rect x="995.08" y="553.95" transform="matrix(-1.836970e-16 1 -1 -1.836970e-16 1555.0299 -437.6775)" class="st31" width="2.54" height="9.45"/>
			<polygon class="st31" points="981.05,578.97 983.18,577.17 989.86,582.82 987.74,584.61 			"/>
			
				<rect x="957.65" y="586.11" transform="matrix(-1 -1.224647e-16 1.224647e-16 -1 1918.3057 1180.1931)" class="st31" width="3.01" height="7.98"/>
			<polygon class="st31" points="935.13,577.17 937.25,578.97 930.57,584.61 928.44,582.82 			"/>
			
				<rect x="920.68" y="553.95" transform="matrix(6.123234e-17 -1 1 6.123234e-17 363.2758 1480.6283)" class="st31" width="2.54" height="9.45"/>
			<polygon class="st31" points="937.25,538.38 935.13,540.18 928.44,534.54 930.57,532.74 			"/>
			<path class="st31" d="M960.66,558.68c0,0.7-0.67,1.27-1.5,1.27c-0.83,0-1.5-0.57-1.5-1.27c0-0.7,0.67-1.27,1.5-1.27
				C959.98,557.41,960.66,557.98,960.66,558.68z"/>
			<g>
				<polygon class="st31" points="972.57,559.02 958.74,559.02 958.74,537.26 959.56,537.26 959.56,558.33 972.57,558.33 				"/>
			</g>
		</g>
		
			<linearGradient id="SVGID_00000102505308652342517690000014435587367622367669_" gradientUnits="userSpaceOnUse" x1="987.6485" y1="659.2417" x2="896.5214" y2="437.6591">
			<stop  offset="0.534" style="stop-color:#FFFFFF;stop-opacity:0"/>
			<stop  offset="0.6301" style="stop-color:#B9B9B9;stop-opacity:0.1443"/>
			<stop  offset="0.7292" style="stop-color:#787878;stop-opacity:0.2932"/>
			<stop  offset="0.8194" style="stop-color:#444444;stop-opacity:0.4287"/>
			<stop  offset="0.8975" style="stop-color:#1F1F1F;stop-opacity:0.546"/>
			<stop  offset="0.9603" style="stop-color:#080808;stop-opacity:0.6403"/>
			<stop  offset="1" style="stop-color:#000000;stop-opacity:0.7"/>
		</linearGradient>
		<polygon style="opacity:0.4;fill:url(#SVGID_00000102505308652342517690000014435587367622367669_);" points="959.15,416.41 
			775.7,508.61 775.7,671.3 1142.61,671.3 1142.61,508.61 		"/>
	</g>
</g>
<g>
	<rect x="484.45" y="169.63" class="st37" width="1014.36" height="261.01"/>
	<text transform="matrix(1.1151 0 0 1 492.2025 244.9709)"><tspan x="0" y="0" class="st35 st38 st39">COMPUTATIONAL</tspan><tspan x="232.53" y="123.85" class="st35 st38 st39">SCHOOL</tspan></text>
	<ellipse class="st21" cx="981.05" cy="254.62" rx="50.76" ry="45.52"/>
	<rect x="929.99" y="239.28" class="st37" width="106.4" height="46.84"/>
	<text transform="matrix(1.1151 0 0 1 943.2276 276.9493)" class="st35 st38 st40">TO</text>
	<g>
		<g>
			<polygon class="st34" points="831.74,63.4 764.77,63.4 783.73,92.49 764.77,121.57 831.74,121.57 			"/>
			<polygon class="st41" points="807.45,74.72 831.74,63.4 831.74,74.72 			"/>
			<polygon class="st34" points="1108.9,63.4 1175.88,63.4 1156.92,92.49 1175.88,121.57 1108.9,121.57 			"/>
			
				<rect x="807.45" y="74.72" transform="matrix(-1 -1.224647e-16 1.224647e-16 -1 1940.6489 207.6033)" class="st21" width="325.75" height="58.16"/>
			<polygon class="st41" points="1133.2,74.72 1108.9,63.4 1108.9,74.72 			"/>
		</g>
		<rect x="849.41" y="87.89" class="st37" width="241.83" height="31.82"/>
		<text transform="matrix(0.9584 0 0 1 865.7164 118.8608)" class="st35 st38 st42">WELCOME</text>
		<path class="st35" d="M1091.24,103.8c0-1.78,1.38-3.22,3.09-3.22s3.09,1.44,3.09,3.22c0,1.78-1.38,3.22-3.09,3.22
			S1091.24,105.58,1091.24,103.8z"/>
		<path class="st35" d="M843.23,103.8c0-1.78,1.38-3.22,3.09-3.22c1.71,0,3.09,1.44,3.09,3.22c0,1.78-1.38,3.22-3.09,3.22
			C844.61,107.02,843.23,105.58,843.23,103.8z"/>
	</g>
</g>
</svg>
