<?xml version="1.0" encoding="UTF-8" standalone="no"?>
<!-- Created with Inkscape (http://www.inkscape.org/) -->

<svg
   width="324.36572mm"
   height="251.4669mm"
   viewBox="0 0 324.36572 251.4669"
   version="1.1"
   id="svg1"
   xml:space="preserve"
   xmlns:inkscape="http://www.inkscape.org/namespaces/inkscape"
   xmlns:sodipodi="http://sodipodi.sourceforge.net/DTD/sodipodi-0.dtd"
   xmlns="http://www.w3.org/2000/svg"
   xmlns:svg="http://www.w3.org/2000/svg"><sodipodi:namedview
     id="namedview1"
     pagecolor="#ffffff"
     bordercolor="#000000"
     borderopacity="0.25"
     inkscape:showpageshadow="2"
     inkscape:pageopacity="0.0"
     inkscape:pagecheckerboard="0"
     inkscape:deskcolor="#d1d1d1"
     inkscape:document-units="mm" /><defs
     id="defs1"><style
       id="style1">
      .cls-1 {
        fill: #d95560;
      }

      .cls-1, .cls-2, .cls-3, .cls-4, .cls-5, .cls-6, .cls-7, .cls-8, .cls-9, .cls-10, .cls-11, .cls-12, .cls-13, .cls-14, .cls-15, .cls-16, .cls-17, .cls-18, .cls-19, .cls-20, .cls-21, .cls-22, .cls-23, .cls-24, .cls-25, .cls-26, .cls-27, .cls-28, .cls-29, .cls-30, .cls-31 {
        stroke-width: 0px;
      }

      .cls-2 {
        fill: #e02c43;
      }

      .cls-3 {
        fill: #f04f4b;
      }

      .cls-4 {
        fill: #301400;
      }

      .cls-5 {
        fill: #603913;
      }

      .cls-6 {
        fill: #00aeef;
      }

      .cls-32 {
        isolation: isolate;
      }

      .cls-7 {
        fill: #008ec3;
      }

      .cls-8 {
        fill: #b42627;
      }

      .cls-9 {
        fill: #fab38e;
      }

      .cls-10 {
        fill: #c65453;
      }

      .cls-11 {
        fill: #a7a9ac;
      }

      .cls-11, .cls-18, .cls-27, .cls-28, .cls-29 {
        mix-blend-mode: multiply;
      }

      .cls-12 {
        fill: #891717;
      }

      .cls-13, .cls-22 {
        fill: #fff;
      }

      .cls-14 {
        fill: #ef4645;
      }

      .cls-15 {
        fill: #5c463c;
      }

      .cls-16 {
        fill: #004943;
      }

      .cls-17 {
        fill: #65bebd;
      }

      .cls-18 {
        fill: #d4b2a2;
      }

      .cls-19 {
        fill: #238d97;
      }

      .cls-20 {
        fill: #3c2415;
      }

      .cls-21 {
        fill: #0096ce;
      }

      .cls-22 {
        mix-blend-mode: soft-light;
        opacity: .2;
      }

      .cls-23 {
        fill: #7a5d52;
      }

      .cls-24 {
        fill: #93ced4;
      }

      .cls-25 {
        fill: #289faa;
      }

      .cls-26 {
        fill: #e23438;
      }

      .cls-27 {
        fill: #bcbec0;
      }

      .cls-28 {
        fill: #e6e7e8;
      }

      .cls-29 {
        fill: #acc1cd;
      }

      .cls-30 {
        fill: #a07ab6;
      }

      .cls-31 {
        fill: #e77966;
      }
    </style></defs><g
     inkscape:label="Layer 1"
     inkscape:groupmode="layer"
     id="layer1"
     transform="translate(113.43313,-46.934825)"><g
       id="Capa_1"
       data-name="Capa 1"
       style="isolation:isolate"
       transform="matrix(0.56785907,0,0,0.50885067,-33.494035,47.028565)"><g
         id="g8"
         transform="matrix(1.2150774,0,0,1.1618104,-91.450926,0)"><rect
           class="cls-13"
           x="0"
           y="0"
           width="425.20001"
           height="425.20001"
           id="rect1" /><rect
           class="cls-17"
           x="-40.591526"
           y="0"
           width="465.79153"
           height="367.41663"
           id="rect2" /><g
           id="g7"
           transform="matrix(1.1113625,0,0,1,-40.591527,-46.388562)"><rect
             class="cls-27"
             y="54.18"
             width="233.57001"
             height="233.92"
             id="rect3"
             x="0" /><rect
             class="cls-15"
             y="46.23"
             width="334.12408"
             height="313.86624"
             id="rect4"
             x="0" /><rect
             class="cls-23"
             y="46.23"
             width="330.00974"
             height="304.74527"
             id="rect5"
             x="0" /><rect
             class="cls-16"
             y="61.16"
             width="329.76431"
             height="290.69711"
             id="rect6"
             x="0" /><path
             class="cls-22"
             d="M 0,76.14136 V 224.6037 c 11.843816,13.10134 25.884469,24.10236 41.851335,32.98836 19.421311,10.81008 40.689239,18.65326 62.673525,23.79393 22.11164,5.17003 44.90781,7.76974 67.71989,8.00474 23.11454,0.22032 46.48379,-1.39532 68.65911,-7.76974 22.87576,-6.58005 44.43023,-17.05231 63.67643,-30.18304 2.97687,-2.02689 5.92191,-4.11253 8.80327,-6.25692 V 76.156047 H 0 Z"
             id="path6" /><path
             class="cls-28"
             d="m 313.3358,270.19403 c -11.38216,7.24099 -23.32149,13.73291 -35.80207,19.22608 -12.28955,5.40504 -25.04076,9.97288 -38.17402,13.29228 -12.99,3.29003 -26.1551,5.19941 -39.55899,6.22755 -25.80487,1.96814 -51.86445,1.46876 -77.52605,-1.80658 -26.011825,-3.3194 -51.721184,-9.356 -75.950066,-18.78545 C 30.198548,282.0763 14.390874,274.38 0.01591911,264.96524 v 86.8772 H 329.78024 v -92.88443 c -5.31698,3.96565 -10.84091,7.69631 -16.4126,11.23602 z"
             id="path7" /><rect
             class="cls-11"
             y="338.74109"
             width="329.76431"
             height="13.101346"
             id="rect7"
             x="0" /></g></g><path
         class="cls-29"
         d="m 415.85415,419.74419 c 0,5.74 -6.54,0.86 -25.11,0.86 -4.02,0 -20.7,2.06 -25.17,0.55 -7.4,-2.5 -4.46,-4.34 -13.53,-5.83 -2.72,-0.45 -12.6,5.36 -14.89,4.85 -6.82,-1.49 -11.38,-3.21 -11.38,-5.04 0,-1.43 8.2,-10.55 9.9,-11.8 5.1,-3.73 39.71,1.41 53.64,1.41 18.57,0 26.54,9.25 26.54,14.99 z"
         id="path9" /><g
         id="g82"
         transform="matrix(1.1614357,0,0,1.0477293,97.591127,13.871563)"><path
           class="cls-9"
           d="m 269.1,195.22 c 1.22,0.32 5.15,-3.8 4.8,-6.72 -0.73,-6.12 -6.42,-15.73 -8.27,-23.86 -1.85,-8.13 -6.83,-11.58 -10.48,-12.51 -3.64,-0.93 2.81,19.76 2.81,19.76 0,0 3.23,8.73 6.02,15.93 1.33,3.44 3.9,7.09 5.12,7.41 z"
           id="path10" /><path
           class="cls-5"
           d="m 259.43,55.86 c 0,5.57 -9.41,16.59 -18.36,16.59 -8.95,0 -17.33,-11.67 -17.33,-17.24 0,-5.57 8.38,-9.49 17.33,-9.49 8.95,0 18.36,4.57 18.36,10.14 z"
           id="path11" /><path
           class="cls-1"
           d="m 257.28,67.68 c 0,5.57 -7.26,10.08 -16.21,10.08 -8.95,0 -16.21,-4.51 -16.21,-10.08 0,-5.57 7.26,-10.08 16.21,-10.08 8.95,0 16.21,4.51 16.21,10.08 z"
           id="path12" /><g
           id="g14"><rect
             class="cls-12"
             x="230.42"
             y="369.82999"
             width="5.3699999"
             height="4.3400002"
             id="rect12" /><path
             class="cls-8"
             d="m 228.63,361.49 c -0.2,4.22 -3.87,8.3 -6.52,12.35 -1.31,2 -2.72,3.36 -4.03,5.7 -1.45,2.62 8.71,3.33 10.42,1.54 1.76,-1.84 4.08,-7.18 6.29,-10.71 0.17,-0.28 0.82,4.06 1,3.8 1.03,-1.52 1.12,-7.86 1.34,-9.68 0.3,-2.47 0,-5.12 -0.57,-7.66 -0.18,-0.82 -7.87,3.37 -7.93,4.66 z"
             id="path13" /><path
             class="cls-9"
             d="m 235.3,350.93 c 0.97,4.41 2.45,8.06 0,11.63 -2.37,3.47 -5.27,9.94 -7.17,11.93 -1.71,1.79 -7.76,3.09 -6.51,0.37 1.96,-4.27 6.68,-13.54 7,-20.37 0.33,-6.83 -7.32,-70.08 -7.32,-70.08 h 17.46 c 0,0 -4.71,60.86 -3.46,66.52 z"
             id="path14" /></g><g
           id="g16"><rect
             class="cls-12"
             x="244.13"
             y="369.82999"
             width="5.3699999"
             height="4.3400002"
             id="rect14" /><path
             class="cls-8"
             d="m 251.29,361.49 c 0.2,4.22 3.87,8.3 6.52,12.35 1.31,2 2.73,3.36 4.03,5.7 1.46,2.62 -8.71,3.33 -10.42,1.54 -1.76,-1.84 -4.08,-7.18 -6.29,-10.71 -0.18,-0.28 -0.82,4.06 -1,3.8 -1.04,-1.52 -1.12,-7.86 -1.34,-9.68 -0.31,-2.47 0,-5.12 0.57,-7.66 0.18,-0.82 7.87,3.37 7.94,4.66 z"
             id="path15" /><path
             class="cls-9"
             d="m 244.61,350.93 c -0.98,4.41 -2.45,8.06 -0.01,11.63 2.37,3.47 5.27,9.94 7.17,11.93 1.71,1.79 7.76,3.09 6.51,0.37 -1.96,-4.27 -6.67,-13.54 -7,-20.37 -0.33,-6.83 7.32,-70.08 7.32,-70.08 h -17.46 c 0,0 4.72,60.86 3.46,66.52 z"
             id="path16" /></g><path
           class="cls-31"
           d="m 267.27,160.94 c -1.85,-8.13 -8.38,-12.13 -12.03,-13.06 -3.64,-0.93 2.72,24.01 2.72,24.01 0,0 7.66,-4.44 9.31,-10.95 z"
           id="path17" /><path
           class="cls-9"
           d="m 207.11,227.5 c -0.07,0.31 2.93,6.94 2.6,9.32 -0.1,0.76 -0.36,2.27 -0.11,3.57 0.17,0.92 -1.88,2.01 -2.33,-0.1 -0.21,-0.97 -0.24,-2.69 -0.66,-4.22 -0.11,-0.4 -1.04,0.1 -1.24,1.73 -0.07,0.6 -0.82,4.12 0.6,8.46 0.53,1.63 -0.95,1.4 -1.03,1.3 -1.52,-1.79 -2.11,-3.36 -2.77,-6.29 -0.65,-2.93 -1.07,-12.26 -0.99,-12.71 2.2,-12.11 9.27,-57.08 10.92,-65.21 1.65,-8.13 4.4,1.58 7.64,0.65 3.25,-0.93 -2.75,26.66 -4.46,32.85 -1.71,6.18 -6.37,22.79 -8.18,30.66 z"
           id="path18" /><path
           class="cls-31"
           d="m 257.22,148.63 c -5.41,-2.23 -14.51,-4.39 -14.51,-4.39 0,0 -15.22,2.44 -18.69,3.66 -3.47,1.22 -4.63,11.08 -4.17,23.3 0.48,12.95 3.27,18.1 3.43,23.2 0.11,3.57 -5.64,11.98 -8.47,27.42 7.81,3.79 46.27,2.48 50.54,-0.18 -1.29,-7.64 -7.44,-25.17 -7.44,-25.17 0,0 3.3,-18.34 2.89,-24.4 -0.41,-6.06 -1.19,-22.46 -3.56,-23.44 z"
           id="path19" /><polygon
           class="cls-9"
           points="233.66,136.27 233.66,146.11 239.65,154.4 246.56,146.11 246.56,136.27 "
           id="polygon19" /><path
           class="cls-18"
           d="m 240.11,144.24 c 3.8,0 6.45,-4.94 6.45,-4.94 v -3.03 h -12.9 v 3.99 c 0,0 2.65,3.98 6.45,3.98 z"
           id="path20" /><path
           class="cls-9"
           d="m 267.08,115.64 c -3.93,16.9 -20.72,26.43 -27.03,26.44 -6.6,0 -20.91,-8.13 -26.33,-26.19 -2.68,-8.93 0.7,-13.15 0.7,-23.63 0,-14.34 11.29,-24.06 25.4,-24.06 14.88,0 27.23,8.73 27.26,24.06 0.02,9.58 0.99,19.12 0,23.38 z"
           id="path21" /><path
           class="cls-9"
           d="m 266.11,104.13 c 0,0 1.79,-3.74 6.34,-1.62 2.99,1.39 1.7,11.62 -1.46,12.86 -3.45,1.35 -4.88,-0.34 -4.88,-0.34"
           id="path22" /><path
           class="cls-9"
           d="m 215.24,104.13 c 0,0 -1.79,-3.74 -6.34,-1.62 -2.99,1.39 -1.7,11.62 1.46,12.86 3.45,1.35 4.88,-0.34 4.88,-0.34"
           id="path23" /><path
           class="cls-5"
           d="m 223.76,102.15 c 0,0 0.1,-0.14 0.27,-0.39 0.15,-0.25 0.46,-0.6 0.83,-0.96 0.75,-0.74 1.94,-1.42 3.22,-1.7 1.73,-0.31 3.28,0.24 3.55,0.51 0.27,0.27 -0.02,2.05 -0.32,1.87 -0.78,-0.45 -2.66,-0.76 -3.2,-0.76 -1.08,-0.06 -2.18,0.3 -2.97,0.68 -0.4,0.21 -0.7,0.4 -0.92,0.6 -0.22,0.19 -0.34,0.29 -0.34,0.29 -0.04,0.03 -0.09,0.02 -0.12,-0.02 -0.02,-0.04 -0.02,-0.09 0,-0.12 z"
           id="path24" /><path
           class="cls-5"
           d="m 257.26,101.7 c 0,0 -0.1,-0.14 -0.27,-0.39 -0.15,-0.25 -0.46,-0.61 -0.83,-0.96 -0.75,-0.74 -1.94,-1.42 -3.22,-1.7 -1.73,-0.32 -3.28,0.24 -3.55,0.51 -0.27,0.27 0.02,2.05 0.32,1.87 0.78,-0.45 2.66,-0.76 3.2,-0.76 1.08,-0.06 2.18,0.3 2.98,0.68 0.39,0.21 0.7,0.39 0.92,0.6 0.22,0.19 0.34,0.29 0.34,0.29 0.04,0.03 0.09,0.03 0.12,-0.02 0.02,-0.04 0.02,-0.09 0,-0.12 z"
           id="path25" /><g
           id="g27"><path
             class="cls-20"
             d="m 254.21,110.24 c 0,0.62 -0.58,1.13 -1.3,1.13 v 0 c -0.72,0 -1.3,-0.51 -1.3,-1.13 v -3.11 c 0,-0.62 0.58,-1.13 1.3,-1.13 v 0 c 0.72,0 1.3,0.51 1.3,1.13 z"
             id="path26" /><path
             class="cls-13"
             d="m 253.75,107.97 c 0,0.4 -0.19,0.72 -0.42,0.72 -0.23,0 -0.42,-0.32 -0.42,-0.72 0,-0.4 0.19,-0.72 0.42,-0.72 0.23,0 0.42,0.32 0.42,0.72 z"
             id="path27" /></g><g
           id="g29"><path
             class="cls-20"
             d="m 230.2,110.24 c 0,0.62 -0.58,1.13 -1.3,1.13 v 0 c -0.72,0 -1.3,-0.51 -1.3,-1.13 v -3.11 c 0,-0.62 0.58,-1.13 1.3,-1.13 v 0 c 0.72,0 1.3,0.51 1.3,1.13 z"
             id="path28" /><path
             class="cls-13"
             d="m 229.89,107.97 c 0,0.4 -0.19,0.72 -0.42,0.72 -0.23,0 -0.42,-0.32 -0.42,-0.72 0,-0.4 0.19,-0.72 0.42,-0.72 0.23,0 0.42,0.32 0.42,0.72 z"
             id="path29" /></g><path
           class="cls-18"
           d="m 242.82,116.15 c 0,0 -1.33,-0.45 -2.59,-0.45 -1.26,0 -1.96,0.45 -1.96,0.45 0,0 1.02,-1.67 2.28,-1.67 1.26,0 2.28,1.67 2.28,1.67 z"
           id="path30" /><g
           id="g33"><path
             class="cls-26"
             d="m 246.65,126.73 c 0,0 -2.38,5.75 -6.1,5.75 -2.99,0 -6.1,-5.75 -6.1,-5.75 0,0 4.26,0.83 6.03,0.83 1.77,0 6.17,-0.83 6.17,-0.83 z"
             id="path31" /><path
             class="cls-13"
             d="m 246.38,126.73 c 0,0 -1.67,3.24 -5.84,3.24 -3.72,0 -5.84,-3.24 -5.84,-3.24 0,0 4.08,0.83 5.77,0.83 1.69,0 5.91,-0.83 5.91,-0.83 z"
             id="path32" /><path
             class="cls-14"
             d="m 244.15,126.42 c -0.89,-0.22 -2.25,-0.79 -2.62,-1.25 -0.24,0.49 -1.55,0.45 -1.73,0 -0.31,0.33 -1.87,1 -3.01,1.28 -1.43,0.36 -2.94,0.28 -2.94,0.28 0,0 3.47,1.23 6.69,1.23 3.22,0 6.69,-1.23 6.69,-1.23 0,0 -1.81,0 -3.09,-0.32 z"
             id="path33" /></g><g
           id="g49"><path
             class="cls-18"
             d="m 250.58,114.16 c -0.24,0 -0.24,0.27 0,0.27 0.24,0 0.24,-0.27 0,-0.27 z"
             id="path34" /><path
             class="cls-18"
             d="m 255.75,114.84 c -0.24,0 -0.24,0.27 0,0.27 0.24,0 0.24,-0.27 0,-0.27 z"
             id="path35" /><path
             class="cls-18"
             d="m 251.9,114.84 c -0.24,0 -0.24,0.27 0,0.27 0.24,0 0.24,-0.27 0,-0.27 z"
             id="path36" /><path
             class="cls-18"
             d="m 251.73,113.56 c -0.47,0 -0.47,0.54 0,0.54 0.47,0 0.47,-0.54 0,-0.54 z"
             id="path37" /><path
             class="cls-18"
             d="m 251.21,114.54 c -0.12,0 -0.12,0.14 0,0.14 0.12,0 0.12,-0.14 0,-0.14 z"
             id="path38" /><path
             class="cls-18"
             d="m 255.57,114.03 c -0.12,0 -0.12,0.14 0,0.14 0.12,0 0.12,-0.14 0,-0.14 z"
             id="path39" /><path
             class="cls-18"
             d="m 254.2,113.26 c -0.12,0 -0.12,0.14 0,0.14 0.12,0 0.12,-0.14 0,-0.14 z"
             id="path40" /><path
             class="cls-18"
             d="m 255.06,115.32 c -0.12,0 -0.12,0.14 0,0.14 0.12,0 0.12,-0.14 0,-0.14 z"
             id="path41" /><path
             class="cls-18"
             d="m 254.11,114.77 c -0.12,0 -0.12,0.14 0,0.14 0.12,0 0.12,-0.14 0,-0.14 z"
             id="path42" /><path
             class="cls-18"
             d="m 252.55,114.36 c -0.31,0 -0.31,0.36 0,0.36 0.31,0 0.31,-0.36 0,-0.36 z"
             id="path43" /><path
             class="cls-18"
             d="m 253.41,113.83 c -0.4,0 -0.4,0.47 0,0.47 0.4,0 0.41,-0.47 0,-0.47 z"
             id="path44" /><path
             class="cls-18"
             d="m 253.22,113.18 c -0.25,0 -0.25,0.29 0,0.29 0.25,0 0.25,-0.29 0,-0.29 z"
             id="path45" /><path
             class="cls-18"
             d="m 255.29,112.96 h -0.03 c -0.38,0 -0.38,0.44 0,0.44 h 0.03 c 0.38,0 0.38,-0.44 0,-0.44 z"
             id="path46" /><path
             class="cls-18"
             d="m 256.28,113.9 c -0.34,0 -0.34,0.39 0,0.39 0.34,0 0.34,-0.39 0,-0.39 z"
             id="path47" /><path
             class="cls-18"
             d="m 254.72,113.91 c 0,0 -0.03,0 -0.04,0 -0.25,-0.03 -0.44,0.11 -0.4,0.29 0,0.01 0,0.02 0,0.03 0.04,0.2 0.41,0.24 0.58,0.12 0.17,-0.13 0.11,-0.4 -0.15,-0.43 z"
             id="path48" /><path
             class="cls-18"
             d="m 253.36,115.07 c -0.56,0 -0.56,0.65 0,0.65 0.56,0 0.56,-0.65 0,-0.65 z"
             id="path49" /></g><g
           id="g65"><path
             class="cls-18"
             d="m 225.79,114.25 c -0.24,0 -0.24,0.27 0,0.27 0.24,0 0.24,-0.27 0,-0.27 z"
             id="path50" /><path
             class="cls-18"
             d="m 230.96,114.93 c -0.24,0 -0.24,0.27 0,0.27 0.24,0 0.24,-0.27 0,-0.27 z"
             id="path51" /><path
             class="cls-18"
             d="m 227.11,114.93 c -0.24,0 -0.24,0.27 0,0.27 0.24,0 0.24,-0.27 0,-0.27 z"
             id="path52" /><path
             class="cls-18"
             d="m 226.94,113.65 c -0.47,0 -0.47,0.54 0,0.54 0.47,0 0.47,-0.54 0,-0.54 z"
             id="path53" /><path
             class="cls-18"
             d="m 226.42,114.63 c -0.12,0 -0.12,0.14 0,0.14 0.12,0 0.12,-0.14 0,-0.14 z"
             id="path54" /><path
             class="cls-18"
             d="m 230.78,114.12 c -0.12,0 -0.12,0.14 0,0.14 0.12,0 0.12,-0.14 0,-0.14 z"
             id="path55" /><path
             class="cls-18"
             d="m 229.41,113.34 c -0.12,0 -0.12,0.14 0,0.14 0.12,0 0.12,-0.14 0,-0.14 z"
             id="path56" /><path
             class="cls-18"
             d="m 230.27,115.41 c -0.12,0 -0.12,0.14 0,0.14 0.12,0 0.12,-0.14 0,-0.14 z"
             id="path57" /><path
             class="cls-18"
             d="m 229.32,114.86 c -0.12,0 -0.12,0.14 0,0.14 0.12,0 0.12,-0.14 0,-0.14 z"
             id="path58" /><path
             class="cls-18"
             d="m 227.76,114.45 c -0.31,0 -0.31,0.36 0,0.36 0.31,0 0.32,-0.36 0,-0.36 z"
             id="path59" /><path
             class="cls-18"
             d="m 228.62,113.92 c -0.41,0 -0.41,0.47 0,0.47 0.41,0 0.4,-0.47 0,-0.47 z"
             id="path60" /><path
             class="cls-18"
             d="m 228.43,113.27 c -0.25,0 -0.25,0.29 0,0.29 0.25,0 0.25,-0.29 0,-0.29 z"
             id="path61" /><path
             class="cls-18"
             d="m 230.49,113.05 h -0.03 c -0.38,0 -0.38,0.44 0,0.44 h 0.03 c 0.38,0 0.38,-0.44 0,-0.44 z"
             id="path62" /><path
             class="cls-18"
             d="m 231.48,113.99 c -0.34,0 -0.34,0.39 0,0.39 0.34,0 0.34,-0.39 0,-0.39 z"
             id="path63" /><path
             class="cls-18"
             d="m 229.93,114 c 0,0 -0.02,0 -0.04,0 -0.26,-0.03 -0.44,0.11 -0.4,0.3 0,0 0,0.02 0,0.03 0.04,0.2 0.41,0.24 0.58,0.11 0.17,-0.13 0.11,-0.4 -0.15,-0.43 z"
             id="path64" /><path
             class="cls-18"
             d="m 228.57,115.16 c -0.56,0 -0.56,0.65 0,0.65 0.56,0 0.56,-0.65 0,-0.65 z"
             id="path65" /></g><g
           id="g68"><path
             class="cls-6"
             d="m 270.79,116.33 c 0,1.19 -0.97,2.16 -2.16,2.16 -1.19,0 -2.16,-0.97 -2.16,-2.16 0,-1.19 0.97,-2.16 2.16,-2.16 1.19,0 2.16,0.97 2.16,2.16 z"
             id="path66" /><path
             class="cls-7"
             d="m 268.96,117.63 c -1.19,0 -2.16,-0.97 -2.16,-2.16 0,-0.11 0.02,-0.21 0.03,-0.32 -0.22,0.34 -0.36,0.75 -0.36,1.19 0,1.19 0.97,2.16 2.16,2.16 1.09,0 1.98,-0.8 2.13,-1.85 -0.39,0.59 -1.05,0.98 -1.8,0.98 z"
             id="path67" /><path
             class="cls-13"
             d="m 269.7,115.46 c 0,0.55 -0.48,0.99 -1.07,0.99 -0.59,0 -1.07,-0.44 -1.07,-0.99 0,-0.55 0.48,-0.99 1.07,-0.99 0.59,0 1.07,0.44 1.07,0.99 z"
             id="path68" /></g><path
           class="cls-18"
           d="m 269.41,113.28 c 0,0 0.48,-1.42 0.14,-2.61 -0.31,-1.08 -1.45,-1.92 -1.38,-2.37 0.18,-1.21 0.53,-2.82 1.15,-3.87 0.61,-1.02 2.29,-1.02 2.48,-0.77 0.53,0.73 1.32,2.13 1.3,4.92 -0.32,-1.76 -0.73,-3.15 -1.75,-4.15 -0.16,-0.15 -1.06,0.04 -1.65,1.02 -0.48,0.82 -0.92,1.94 -1.22,2.86 -0.15,0.44 1.89,0.54 2.15,1.63 0.28,1.18 -1.21,3.33 -1.21,3.33 z"
           id="path69" /><g
           id="g72"><path
             class="cls-6"
             d="m 210.84,116.33 c 0,1.19 0.97,2.16 2.16,2.16 1.19,0 2.16,-0.97 2.16,-2.16 0,-1.19 -0.97,-2.16 -2.16,-2.16 -1.19,0 -2.16,0.97 -2.16,2.16 z"
             id="path70" /><path
             class="cls-7"
             d="m 212.67,117.63 c 1.19,0 2.16,-0.97 2.16,-2.16 0,-0.11 -0.02,-0.21 -0.03,-0.32 0.22,0.34 0.36,0.75 0.36,1.19 0,1.19 -0.97,2.16 -2.16,2.16 -1.09,0 -1.98,-0.8 -2.13,-1.85 0.39,0.59 1.05,0.98 1.81,0.98 z"
             id="path71" /><path
             class="cls-13"
             d="m 211.93,115.46 c 0,0.55 0.48,0.99 1.07,0.99 0.59,0 1.07,-0.44 1.07,-0.99 0,-0.55 -0.48,-0.99 -1.07,-0.99 -0.59,0 -1.07,0.44 -1.07,0.99 z"
             id="path72" /></g><path
           class="cls-18"
           d="m 212.22,113.28 c 0,0 -0.48,-1.42 -0.13,-2.61 0.31,-1.08 1.46,-1.92 1.39,-2.37 -0.18,-1.21 -0.53,-2.82 -1.16,-3.87 -0.61,-1.02 -2.29,-1.02 -2.48,-0.77 -0.53,0.73 -1.33,2.13 -1.3,4.92 0.33,-1.76 0.73,-3.15 1.75,-4.15 0.16,-0.15 1.06,0.04 1.65,1.02 0.49,0.82 0.92,1.94 1.23,2.86 0.15,0.44 -1.89,0.54 -2.15,1.63 -0.28,1.18 1.21,3.33 1.21,3.33 z"
           id="path73" /><path
           class="cls-5"
           d="m 268.26,102.86 c 1.71,-1.95 4.19,-0.35 4.19,-0.35 0,0 2.21,-10.67 0.73,-18.59 -3.06,-16.37 -17.91,-21.8 -33.07,-21.8 -21.38,0 -31.58,14.7 -32.9,23.67 -0.76,5.16 1.69,16.72 1.69,16.72 0,0 1.8,-0.98 2.33,-0.64 0,0 -0.97,11.32 6.18,16.36 -3.58,-5.53 -2.17,-14.1 -2.17,-14.1 0,0 5.07,-5.81 8.51,-11.84 2.85,-4.99 2.85,-13.66 6.74,-9.43 4.83,-8.15 13.83,5.85 23.73,13.5 5.88,4.53 10.26,7.18 10.26,7.18 0,0 0.25,6.34 -1.21,12.36 5.2,-4.88 3.29,-11.08 4.99,-13.03 z"
           id="path74" /><polygon
           class="cls-13"
           points="251.12,146.41 249.37,154.87 245.38,153.04 245.38,155.27 239.65,154.4 246.56,146.11 246.56,144.24 "
           id="polygon74" /><polygon
           class="cls-13"
           points="229.34,146.09 230.69,153.79 234.41,152.23 234.41,155.27 239.65,154.4 233.66,146.11 233.66,144.56 "
           id="polygon75" /><path
           class="cls-31"
           d="m 211.13,160.94 c 1.85,-8.13 9.24,-12.11 12.88,-13.04 3.64,-0.93 -3.58,23.99 -3.58,23.99 0,0 -7.15,-3.89 -9.31,-10.95 z"
           id="path75" /><path
           class="cls-10"
           d="m 234.54,179.06 c 0,0 4.12,-3.28 6.34,-3.2 2.22,0.09 6.72,3.2 6.72,3.2 0,0 -2.59,-1.3 -6.78,-1.3 -4.19,0 -6.29,1.3 -6.29,1.3 z"
           id="path76" /><path
           class="cls-3"
           d="m 286.58,292.29 -89.11,2.28 c 0,0 9.63,-67.07 25.13,-97.12 7.5,-2.83 27.66,-3.15 36.23,0.15 25.8,31.6 27.75,94.69 27.75,94.69 z"
           id="path77" /><path
           class="cls-2"
           d="m 236.66,226.23 c 0,0 2.61,14.01 7.46,24.08 6.46,13.4 15.76,17.27 15.76,17.27 l -23.23,-41.35 z"
           id="path78" /><path
           class="cls-3"
           d="m 258.83,197.6 c -1.2,0.36 -35.28,0.13 -36.23,-0.15 -0.95,-0.28 0.4,-3.58 0.4,-3.58 0,0 -1.67,-3.64 -0.4,-4.07 1.27,-0.43 35.7,-0.22 36.83,0 1.13,0.22 0.43,3.42 -0.6,4.58 0.64,0.8 1.19,2.87 0,3.23 z"
           id="path79" /><g
           id="g81"><polygon
             class="cls-21"
             points="274.63,165.35 257.13,196.49 235.79,184.5 250.42,153.94 253.81,153.65 "
             id="polygon79" /><polygon
             class="cls-13"
             points="235.85,184.85 250.17,154.4 253.08,154.16 273.36,165.56 256.12,196.24 253.2,196.47 "
             id="polygon80" /><rect
             class="cls-6"
             x="234.49001"
             y="163.25999"
             width="35.720001"
             height="24.48"
             transform="rotate(-60.67,252.37317,175.50893)"
             id="rect80" /><rect
             class="cls-24"
             x="249.38"
             y="159.67999"
             width="12.09"
             height="21.219999"
             transform="rotate(-60.68,255.40586,170.2916)"
             id="rect81" /></g><path
           class="cls-9"
           d="m 269.1,195.22 c 2.83,-1.56 4,-6.88 1.69,-10.29 -3.94,-1.66 -18.66,-5.57 -26.27,-8.25 -0.31,-0.11 -0.23,-6.97 -2.49,-7.8 -2.07,-0.76 -4.3,-0.38 -6.24,-0.05 -1.69,0.28 -1.29,2.93 -1.25,3.05 0.7,2.24 -3.01,3.46 -0.88,5.58 2.12,2.12 7.95,3.86 8.37,4.03 8.28,3.36 17.62,9.41 27.07,13.73 z"
           id="path81" /></g></g></g></svg>
