<?xml version="1.0" encoding="UTF-8"?>
<svg xmlns="http://www.w3.org/2000/svg" viewBox="0 0 514 473.77">
  <defs>
    <style>
      .cls-1 {
        fill: #0f0f0f;
      }

      .cls-1, .cls-2, .cls-3, .cls-4, .cls-5, .cls-6, .cls-7, .cls-8, .cls-9, .cls-10, .cls-11, .cls-12, .cls-13, .cls-14, .cls-15, .cls-16, .cls-17, .cls-18, .cls-19, .cls-20, .cls-21, .cls-22, .cls-23 {
        stroke-width: 0px;
      }

      .cls-1, .cls-6, .cls-13, .cls-21 {
        mix-blend-mode: screen;
      }

      .cls-2 {
        fill: #5d4121;
      }

      .cls-3, .cls-4 {
        fill: #e9e8e8;
      }

      .cls-4, .cls-7, .cls-16, .cls-17, .cls-22, .cls-24, .cls-23 {
        mix-blend-mode: multiply;
      }

      .cls-25 {
        isolation: isolate;
      }

      .cls-5 {
        fill: #714f29;
      }

      .cls-6 {
        fill: #1c2021;
      }

      .cls-7 {
        fill: #6f6f6f;
      }

      .cls-8 {
        fill: #bfbcad;
      }

      .cls-9 {
        fill: #808ca3;
      }

      .cls-10 {
        fill: #432f1a;
      }

      .cls-11 {
        fill: #8a867f;
      }

      .cls-12 {
        fill: #eae6de;
      }

      .cls-13 {
        fill: #251a10;
      }

      .cls-14 {
        fill: #bdb7ae;
      }

      .cls-15 {
        fill: #887955;
      }

      .cls-16 {
        fill: #d9d9d8;
      }

      .cls-17 {
        fill: #eae2db;
      }

      .cls-18 {
        fill: #e1ded6;
      }

      .cls-19 {
        fill: #dbd7cc;
      }

      .cls-20 {
        fill: #a8b4cf;
      }

      .cls-21 {
        fill: #959494;
      }

      .cls-22 {
        fill: #f5f6f6;
      }

      .cls-23 {
        fill: #f0edea;
      }
    </style>
  </defs>
  <g class="cls-25">
    <g id="Layer_1" data-name="Layer 1">
      <g>
        <rect class="cls-19" x="8.32" y="213.02" width="497.36" height="219.26"/>
        <rect class="cls-4" x="8.32" y="213.02" width="497.36" height="26.02"/>
        <rect class="cls-4" x="113.1" y="239.05" width="287.79" height="193.23"/>
        <rect class="cls-12" x="118.46" y="213.02" width="277.08" height="219.26"/>
        <rect class="cls-4" x="118.46" y="213.02" width="277.08" height="39.43"/>
        <g>
          <g>
            <rect class="cls-16" x="27.09" y="302.44" width="64.42" height="101.64"/>
            <rect class="cls-9" x="33.73" y="310.21" width="51.12" height="86.09"/>
            <rect class="cls-20" x="33.73" y="387.49" width="51.12" height="8.8"/>
            <rect class="cls-23" x="33.73" y="310.21" width="51.12" height="25.8"/>
            <polygon class="cls-6" points="33.73 313.29 33.73 361.82 63.22 396.3 84.85 396.3 84.85 373.07 33.73 313.29"/>
          </g>
          <g>
            <rect class="cls-16" x="27.09" y="234.94" width="34.05" height="53.73"/>
            <rect class="cls-9" x="30.6" y="239.05" width="27.03" height="45.51"/>
            <rect class="cls-20" x="30.6" y="279.9" width="27.03" height="4.65"/>
            <rect class="cls-23" x="30.6" y="239.05" width="27.03" height="13.64"/>
            <polygon class="cls-6" points="30.6 240.68 30.6 266.33 46.19 284.56 57.63 284.56 57.63 272.29 30.6 240.68"/>
          </g>
          <g>
            <rect class="cls-16" x="69.24" y="234.94" width="34.05" height="53.73"/>
            <rect class="cls-9" x="72.75" y="239.05" width="27.03" height="45.51"/>
            <rect class="cls-20" x="72.75" y="279.9" width="27.03" height="4.65"/>
            <rect class="cls-23" x="72.75" y="239.05" width="27.03" height="13.64"/>
            <polygon class="cls-6" points="72.75 240.68 72.75 266.33 88.33 284.56 99.78 284.56 99.78 272.29 72.75 240.68"/>
          </g>
          <g>
            <rect class="cls-16" x="422.5" y="302.44" width="64.41" height="101.64"/>
            <rect class="cls-9" x="429.14" y="310.21" width="51.13" height="86.09"/>
            <rect class="cls-20" x="429.14" y="387.49" width="51.13" height="8.8"/>
            <rect class="cls-23" x="429.14" y="310.21" width="51.13" height="25.8"/>
            <polygon class="cls-6" points="429.14 313.29 429.14 361.82 458.63 396.3 480.27 396.3 480.27 373.07 429.14 313.29"/>
          </g>
          <g>
            <rect class="cls-16" x="452.86" y="234.94" width="34.06" height="53.73"/>
            <rect class="cls-9" x="456.38" y="239.05" width="27.02" height="45.51"/>
            <rect class="cls-20" x="456.38" y="279.9" width="27.02" height="4.65"/>
            <rect class="cls-23" x="456.38" y="239.05" width="27.02" height="13.64"/>
            <polygon class="cls-6" points="456.38 240.68 456.38 266.33 471.96 284.56 483.4 284.56 483.4 272.29 456.38 240.68"/>
          </g>
          <g>
            <rect class="cls-16" x="410.71" y="234.94" width="34.06" height="53.73"/>
            <rect class="cls-9" x="414.22" y="239.05" width="27.03" height="45.51"/>
            <rect class="cls-20" x="414.22" y="279.9" width="27.03" height="4.65"/>
            <rect class="cls-23" x="414.22" y="239.05" width="27.03" height="13.64"/>
            <polygon class="cls-6" points="414.22 240.68 414.22 266.33 429.81 284.56 441.25 284.56 441.25 272.29 414.22 240.68"/>
          </g>
        </g>
        <rect class="cls-4" x="120.86" y="421.29" width="272.27" height="10.99"/>
        <g>
          <g>
            <rect class="cls-19" x="129.35" y="213.02" width="30.54" height="219.26"/>
            <rect class="cls-4" x="135.46" y="213.02" width="6.11" height="219.26"/>
            <rect class="cls-4" x="147.67" y="213.02" width="6.11" height="219.26"/>
            <path class="cls-4" d="M129.35,213.02v25.47c5.77,0,10.64-4.55,12.12-10.74h6.3c1.48,6.19,6.35,10.74,12.12,10.74v-25.47h-30.54Z"/>
            <rect class="cls-19" x="129.35" y="213.02" width="30.54" height="10.75"/>
            <path class="cls-19" d="M159.89,407.32h-30.54c-1.64,0-2.97,1.55-2.97,3.47v21.5h36.49v-21.5c0-1.92-1.33-3.47-2.97-3.47Z"/>
            <path class="cls-19" d="M162.86,423.03h-36.49c-4.38,0-7.92,4.14-7.92,9.26h52.32c0-5.11-3.55-9.26-7.91-9.26Z"/>
            <g>
              <path class="cls-4" d="M141.06,407.32h-5.44c-.97,0-1.75,1.55-1.75,3.47v12.24h6.51v-12.24c0-1.92.31-3.47.68-3.47Z"/>
              <path class="cls-4" d="M153.61,407.32h-5.45c.38,0,.69,1.55.69,3.47v12.24h6.51v-12.24c0-1.92-.77-3.47-1.75-3.47Z"/>
            </g>
            <path class="cls-4" d="M140.38,423.03h-6.51c-2.58,0-4.66,4.14-4.66,9.26h9.33c0-5.11.82-9.26,1.85-9.26Z"/>
            <path class="cls-4" d="M155.36,423.03h-6.51c1.02,0,1.84,4.14,1.84,9.26h9.33c0-5.11-2.08-9.26-4.66-9.26Z"/>
            <rect class="cls-4" x="129.35" y="404.25" width="30.54" height="3.06"/>
            <rect class="cls-4" x="126.38" y="419.8" width="36.49" height="3.23"/>
            <g>
              <path class="cls-19" d="M169.09,223.77c0-5.93-4.12-10.75-9.2-10.75s-9.19,4.81-9.19,10.75,4.11,10.75,9.19,10.75,9.2-4.81,9.2-10.75Z"/>
              <path class="cls-4" d="M159.32,229.23c2.58,0,4.67-2.45,4.67-5.46h-9.33c0,3.01,2.09,5.46,4.66,5.46Z"/>
              <path class="cls-4" d="M157.34,216c-3.67,0-6.64,3.48-6.64,7.77h13.3c0-4.29-2.98-7.77-6.65-7.77Z"/>
              <path class="cls-4" d="M157.85,220.13c-1.76,0-3.19,1.67-3.19,3.73h6.37c0-2.07-1.43-3.73-3.18-3.73Z"/>
            </g>
            <g>
              <path class="cls-19" d="M120.15,223.77c0-5.93,4.12-10.75,9.2-10.75s9.19,4.81,9.19,10.75-4.11,10.75-9.19,10.75-9.2-4.81-9.2-10.75Z"/>
              <path class="cls-4" d="M129.91,229.23c-2.57,0-4.67-2.45-4.67-5.46h9.34c0,3.01-2.09,5.46-4.67,5.46Z"/>
              <path class="cls-4" d="M131.9,216c3.67,0,6.64,3.48,6.64,7.77h-13.29c0-4.29,2.98-7.77,6.65-7.77Z"/>
              <path class="cls-4" d="M131.39,220.13c1.75,0,3.19,1.67,3.19,3.73h-6.38c0-2.07,1.42-3.73,3.19-3.73Z"/>
            </g>
          </g>
          <g>
            <rect class="cls-19" x="174.52" y="213.02" width="30.54" height="219.26"/>
            <rect class="cls-4" x="180.63" y="213.02" width="6.11" height="219.26"/>
            <rect class="cls-4" x="192.85" y="213.02" width="6.11" height="219.26"/>
            <path class="cls-4" d="M174.52,213.02v25.47c5.76,0,10.63-4.55,12.12-10.74h6.3c1.49,6.19,6.35,10.74,12.12,10.74v-25.47h-30.54Z"/>
            <rect class="cls-19" x="174.52" y="213.02" width="30.54" height="10.75"/>
            <path class="cls-19" d="M205.06,407.32h-30.54c-1.64,0-2.97,1.55-2.97,3.47v21.5h36.49v-21.5c0-1.92-1.33-3.47-2.97-3.47Z"/>
            <path class="cls-19" d="M208.04,423.03h-36.49c-4.37,0-7.91,4.14-7.91,9.26h52.32c0-5.11-3.55-9.26-7.91-9.26Z"/>
            <g>
              <path class="cls-4" d="M186.24,407.32h-5.45c-.97,0-1.75,1.55-1.75,3.47v12.24h6.51v-12.24c0-1.92.31-3.47.69-3.47Z"/>
              <path class="cls-4" d="M198.79,407.32h-5.45c.39,0,.69,1.55.69,3.47v12.24h6.51v-12.24c0-1.92-.78-3.47-1.75-3.47Z"/>
            </g>
            <path class="cls-4" d="M185.55,423.03h-6.51c-2.58,0-4.66,4.14-4.66,9.26h9.33c0-5.11.83-9.26,1.84-9.26Z"/>
            <path class="cls-4" d="M200.54,423.03h-6.51c1.02,0,1.85,4.14,1.85,9.26h9.33c0-5.11-2.08-9.26-4.67-9.26Z"/>
            <rect class="cls-4" x="174.52" y="404.25" width="30.54" height="3.06"/>
            <rect class="cls-4" x="171.55" y="419.8" width="36.49" height="3.23"/>
            <g>
              <path class="cls-19" d="M214.25,223.77c0-5.93-4.11-10.75-9.19-10.75s-9.19,4.81-9.19,10.75,4.11,10.75,9.19,10.75,9.19-4.81,9.19-10.75Z"/>
              <path class="cls-4" d="M204.5,229.23c2.58,0,4.66-2.45,4.66-5.46h-9.33c0,3.01,2.09,5.46,4.67,5.46Z"/>
              <path class="cls-4" d="M202.52,216c-3.67,0-6.64,3.48-6.64,7.77h13.29c0-4.29-2.98-7.77-6.65-7.77Z"/>
              <path class="cls-4" d="M203.03,220.13c-1.76,0-3.19,1.67-3.19,3.73h6.38c0-2.07-1.43-3.73-3.18-3.73Z"/>
            </g>
            <g>
              <ellipse class="cls-19" cx="174.52" cy="223.77" rx="9.19" ry="10.75"/>
              <path class="cls-4" d="M175.08,229.23c-2.57,0-4.66-2.45-4.66-5.46h9.33c0,3.01-2.09,5.46-4.67,5.46Z"/>
              <path class="cls-4" d="M177.07,216c3.66,0,6.64,3.48,6.64,7.77h-13.29c0-4.29,2.98-7.77,6.65-7.77Z"/>
              <path class="cls-4" d="M176.56,220.13c1.76,0,3.19,1.67,3.19,3.73h-6.38c0-2.07,1.43-3.73,3.19-3.73Z"/>
            </g>
          </g>
          <g>
            <rect class="cls-19" x="308.94" y="213.02" width="30.54" height="219.26"/>
            <rect class="cls-4" x="315.04" y="213.02" width="6.11" height="219.26"/>
            <rect class="cls-4" x="327.26" y="213.02" width="6.11" height="219.26"/>
            <path class="cls-4" d="M308.94,213.02v25.47c5.76,0,10.63-4.55,12.12-10.74h6.3c1.48,6.19,6.35,10.74,12.11,10.74v-25.47h-30.54Z"/>
            <rect class="cls-19" x="308.94" y="213.02" width="30.54" height="10.75"/>
            <path class="cls-19" d="M339.48,407.32h-30.54c-1.64,0-2.97,1.55-2.97,3.47v21.5h36.49v-21.5c0-1.92-1.33-3.47-2.97-3.47Z"/>
            <path class="cls-19" d="M342.45,423.03h-36.49c-4.37,0-7.92,4.14-7.92,9.26h52.32c0-5.11-3.55-9.26-7.92-9.26Z"/>
            <g>
              <path class="cls-4" d="M320.66,407.32h-5.45c-.97,0-1.75,1.55-1.75,3.47v12.24h6.51v-12.24c0-1.92.31-3.47.69-3.47Z"/>
              <path class="cls-4" d="M333.2,407.32h-5.45c.38,0,.69,1.55.69,3.47v12.24h6.51v-12.24c0-1.92-.78-3.47-1.75-3.47Z"/>
            </g>
            <path class="cls-4" d="M319.97,423.03h-6.51c-2.58,0-4.66,4.14-4.66,9.26h9.33c0-5.11.82-9.26,1.84-9.26Z"/>
            <path class="cls-4" d="M334.96,423.03h-6.51c1.02,0,1.85,4.14,1.85,9.26h9.33c0-5.11-2.08-9.26-4.66-9.26Z"/>
            <rect class="cls-4" x="308.94" y="404.25" width="30.54" height="3.06"/>
            <rect class="cls-4" x="305.96" y="419.8" width="36.49" height="3.23"/>
            <g>
              <path class="cls-19" d="M348.68,223.77c0-5.93-4.12-10.75-9.2-10.75s-9.19,4.81-9.19,10.75,4.11,10.75,9.19,10.75,9.2-4.81,9.2-10.75Z"/>
              <path class="cls-4" d="M338.91,229.23c2.58,0,4.67-2.45,4.67-5.46h-9.34c0,3.01,2.09,5.46,4.66,5.46Z"/>
              <path class="cls-4" d="M336.93,216c-3.67,0-6.64,3.48-6.64,7.77h13.3c0-4.29-2.98-7.77-6.65-7.77Z"/>
              <path class="cls-4" d="M337.44,220.13c-1.76,0-3.19,1.67-3.19,3.73h6.38c0-2.07-1.43-3.73-3.19-3.73Z"/>
            </g>
            <g>
              <ellipse class="cls-19" cx="308.94" cy="223.77" rx="9.19" ry="10.75"/>
              <path class="cls-4" d="M309.5,229.23c-2.58,0-4.67-2.45-4.67-5.46h9.33c0,3.01-2.09,5.46-4.66,5.46Z"/>
              <path class="cls-4" d="M311.48,216c3.67,0,6.64,3.48,6.64,7.77h-13.29c0-4.29,2.98-7.77,6.65-7.77Z"/>
              <path class="cls-4" d="M310.98,220.13c1.76,0,3.19,1.67,3.19,3.73h-6.38c0-2.07,1.43-3.73,3.19-3.73Z"/>
            </g>
          </g>
          <g>
            <rect class="cls-19" x="354.11" y="213.02" width="30.55" height="219.26"/>
            <rect class="cls-4" x="360.22" y="213.02" width="6.11" height="219.26"/>
            <rect class="cls-4" x="372.44" y="213.02" width="6.11" height="219.26"/>
            <path class="cls-4" d="M354.11,213.02v25.47c5.77,0,10.64-4.55,12.12-10.74h6.3c1.49,6.19,6.35,10.74,12.12,10.74v-25.47h-30.55Z"/>
            <rect class="cls-19" x="354.11" y="213.02" width="30.55" height="10.75"/>
            <path class="cls-19" d="M384.65,407.32h-30.55c-1.64,0-2.97,1.55-2.97,3.47v21.5h36.49v-21.5c0-1.92-1.33-3.47-2.97-3.47Z"/>
            <path class="cls-19" d="M387.62,423.03h-36.49c-4.37,0-7.92,4.14-7.92,9.26h52.32c0-5.11-3.54-9.26-7.92-9.26Z"/>
            <g>
              <path class="cls-4" d="M365.83,407.32h-5.46c-.96,0-1.74,1.55-1.74,3.47v12.24h6.51v-12.24c0-1.92.31-3.47.69-3.47Z"/>
              <path class="cls-4" d="M378.38,407.32h-5.45c.38,0,.69,1.55.69,3.47v12.24h6.51v-12.24c0-1.92-.78-3.47-1.75-3.47Z"/>
            </g>
            <path class="cls-4" d="M365.14,423.03h-6.51c-2.58,0-4.67,4.14-4.67,9.26h9.33c0-5.11.82-9.26,1.84-9.26Z"/>
            <path class="cls-4" d="M380.13,423.03h-6.51c1.02,0,1.85,4.14,1.85,9.26h9.33c0-5.11-2.08-9.26-4.66-9.26Z"/>
            <rect class="cls-4" x="354.11" y="404.25" width="30.55" height="3.06"/>
            <rect class="cls-4" x="351.14" y="419.8" width="36.49" height="3.23"/>
            <g>
              <ellipse class="cls-19" cx="384.65" cy="223.77" rx="9.19" ry="10.75"/>
              <path class="cls-4" d="M384.09,229.23c2.58,0,4.67-2.45,4.67-5.46h-9.33c0,3.01,2.09,5.46,4.66,5.46Z"/>
              <path class="cls-4" d="M382.1,216c-3.67,0-6.64,3.48-6.64,7.77h13.29c0-4.29-2.98-7.77-6.65-7.77Z"/>
              <path class="cls-4" d="M382.61,220.13c-1.76,0-3.18,1.67-3.18,3.73h6.38c0-2.07-1.43-3.73-3.19-3.73Z"/>
            </g>
            <g>
              <path class="cls-19" d="M344.92,223.77c0-5.93,4.11-10.75,9.19-10.75s9.2,4.81,9.2,10.75-4.12,10.75-9.2,10.75-9.19-4.81-9.19-10.75Z"/>
              <path class="cls-4" d="M354.67,229.23c-2.57,0-4.66-2.45-4.66-5.46h9.33c0,3.01-2.09,5.46-4.66,5.46Z"/>
              <path class="cls-4" d="M356.65,216c3.67,0,6.65,3.48,6.65,7.77h-13.29c0-4.29,2.98-7.77,6.64-7.77Z"/>
              <path class="cls-4" d="M356.15,220.13c1.76,0,3.19,1.67,3.19,3.73h-6.37c0-2.07,1.42-3.73,3.18-3.73Z"/>
            </g>
          </g>
        </g>
        <g>
          <rect class="cls-14" x="8.32" y="432.28" width="497.36" height="41.49"/>
          <rect class="cls-16" x="106.35" y="432.28" width="301.3" height="41.49"/>
          <g>
            <rect class="cls-19" x="179.49" y="432.28" width="155.01" height="13.83"/>
            <rect class="cls-19" x="174.42" y="446.11" width="165.15" height="13.83"/>
            <rect class="cls-19" x="168.97" y="459.94" width="176.06" height="13.83"/>
            <rect class="cls-4" x="179.49" y="441.96" width="155.01" height="4.15"/>
            <rect class="cls-4" x="174.42" y="455.79" width="165.15" height="4.15"/>
            <rect class="cls-4" x="168.97" y="469.62" width="176.06" height="4.15"/>
          </g>
          <g class="cls-24">
            <g>
              <rect class="cls-3" x="21.41" y="455.65" width="27.68" height="13.02"/>
              <rect class="cls-3" x="54.96" y="455.65" width="27.68" height="13.02"/>
              <rect class="cls-3" x="38.19" y="437.39" width="27.68" height="13.02"/>
            </g>
          </g>
          <g class="cls-24">
            <g>
              <rect class="cls-3" x="424.09" y="455.65" width="27.68" height="13.02"/>
              <rect class="cls-3" x="457.64" y="455.65" width="27.68" height="13.02"/>
              <rect class="cls-3" x="440.87" y="437.39" width="27.67" height="13.02"/>
            </g>
          </g>
        </g>
        <g>
          <path class="cls-8" d="M257,226.37c-23.43,0-42.42,22.2-42.42,49.59v156.32h84.82v-156.32c0-27.39-18.99-49.59-42.4-49.59Z"/>
          <path class="cls-8" d="M222.76,432.28v-156.32c0-22.08,15.36-40.04,34.25-40.04s34.24,17.96,34.24,40.04v156.32h-68.49Z"/>
          <path class="cls-7" d="M257,235.92c-18.89,0-34.25,17.96-34.25,40.04h68.49c0-22.08-15.36-40.04-34.24-40.04Z"/>
          <path class="cls-12" d="M257,258.98c-8.02,0-14.52,7.6-14.52,16.97h29.04c0-9.38-6.5-16.97-14.51-16.97Z"/>
          <rect class="cls-12" x="222.76" y="275.96" width="68.49" height="13.25"/>
          <rect class="cls-16" x="222.76" y="308.83" width="68.49" height="6.68"/>
          <g>
            <rect class="cls-5" x="222.76" y="315.5" width="34.25" height="98.24"/>
            <rect class="cls-5" x="257" y="315.5" width="34.24" height="98.24"/>
            <path class="cls-2" d="M284.43,397.83v-66.41c-3.76,0-6.8-3.56-6.8-7.96h-7.02c0,4.4-3.05,7.96-6.8,7.96v66.41c3.76,0,6.8,3.56,6.8,7.96h7.02c0-4.4,3.04-7.96,6.8-7.96Z"/>
            <path class="cls-2" d="M250.19,397.83v-66.41c-3.76,0-6.81-3.56-6.81-7.96h-7.01c0,4.4-3.05,7.96-6.8,7.96v66.41c3.76,0,6.8,3.56,6.8,7.96h7.01c0-4.4,3.05-7.96,6.81-7.96Z"/>
            <g>
              <path class="cls-15" d="M267.44,364.62c0,2.35-1.63,4.25-3.63,4.25s-3.63-1.9-3.63-4.25,1.63-4.25,3.63-4.25,3.63,1.91,3.63,4.25Z"/>
              <path class="cls-21" d="M263.81,360.95c-1.74,0-3.15,1.65-3.15,3.68h3.15v-3.68Z"/>
            </g>
            <g>
              <path class="cls-15" d="M253.82,364.62c0,2.35-1.62,4.25-3.63,4.25s-3.63-1.9-3.63-4.25,1.63-4.25,3.63-4.25,3.63,1.91,3.63,4.25Z"/>
              <path class="cls-21" d="M250.19,360.92c-1.75,0-3.17,1.66-3.17,3.7h3.17v-3.7Z"/>
            </g>
            <rect class="cls-10" x="222.76" y="413.74" width="68.49" height="18.54"/>
            <rect class="cls-13" x="222.76" y="413.74" width="68.49" height="3.38"/>
            <rect class="cls-17" x="222.76" y="315.5" width="68.49" height="7.96"/>
            <rect class="cls-13" x="257" y="323.46" width="3.17" height="90.29"/>
            <rect class="cls-17" x="253.82" y="323.46" width="3.17" height="90.29"/>
          </g>
        </g>
        <g>
          <polygon class="cls-19" points="103.4 103.06 103.4 111.11 410.6 111.11 410.6 103.06 257 12.33 103.4 103.06"/>
          <polygon class="cls-4" points="257 12.33 103.4 103.06 103.4 111.11 257 20.38 410.6 111.11 410.6 103.06 257 12.33"/>
          <polygon class="cls-14" points="257 0 103.4 90.73 103.4 103.06 257 12.33 410.6 103.06 410.6 90.73 257 0"/>
          <polygon class="cls-4" points="375.82 100.01 138.17 100.01 257 29.82 375.82 100.01"/>
          <polygon class="cls-12" points="152.2 96.11 257 34.2 361.8 96.11 152.2 96.11"/>
          <polygon class="cls-4" points="257 40.48 351.17 96.11 361.8 96.11 257 34.2 152.2 96.11 162.83 96.11 257 40.48"/>
          <rect class="cls-18" x="123.13" y="115.38" width="267.73" height="48.06"/>
          <rect class="cls-12" x="139.05" y="115.38" width="235.9" height="48.06"/>
          <rect class="cls-4" x="123.13" y="115.5" width="267.73" height="10.5"/>
          <rect class="cls-14" x="120.49" y="111.11" width="273.01" height="4.28"/>
          <g>
            <path class="cls-11" d="M209.59,132.32c.42-.07.8-.12,1.14-.16.34-.03.65-.05.91-.05.28,0,.59.02.94.05.35.04.73.09,1.13.16v15.25h5.38c.08.46.13.85.16,1.19.02.34.04.64.04.91,0,.31-.01.63-.04.97-.02.33-.08.74-.16,1.21h-9.5v-19.53Z"/>
            <path class="cls-11" d="M224.26,152.02c-.58,0-1.26-.08-2.07-.25v-19.45c.42-.07.8-.12,1.14-.16.34-.03.64-.05.91-.05.28,0,.59.02.94.05.35.04.73.09,1.13.16v19.45c-.82.17-1.51.25-2.05.25Z"/>
            <path class="cls-11" d="M242.06,146.13c0,1.2-.19,2.19-.56,2.98-.37.78-.89,1.4-1.54,1.85-.65.46-1.42.77-2.33.95-.9.18-1.87.27-2.93.27-.84,0-1.59-.03-2.26-.11-.67-.07-1.39-.17-2.16-.28v-19.47c.59-.11,1.23-.2,1.93-.27.7-.08,1.52-.11,2.45-.11s1.71.09,2.48.26c.77.18,1.44.46,2.02.87.57.41,1.02.95,1.36,1.63.33.69.5,1.53.5,2.58,0,.85-.16,1.63-.49,2.33-.33.7-.73,1.24-1.23,1.62.36.16.7.38,1.04.64.33.26.63.59.88.98.26.39.46.86.61,1.4.16.54.23,1.17.23,1.88ZM234.3,139.76h.65c.67,0,1.19-.16,1.56-.47.38-.32.56-.87.56-1.65,0-.38-.07-.7-.21-.96-.13-.25-.29-.45-.49-.6-.2-.14-.43-.24-.68-.29-.25-.06-.49-.09-.72-.09h-.33c-.13,0-.24.01-.34.03v4.03ZM234.3,143.63v4.58c.11.02.25.04.41.04.17,0,.38.02.64.02.29,0,.59-.04.9-.11.3-.08.58-.19.83-.37.25-.17.44-.4.59-.7.15-.3.22-.68.22-1.13,0-.87-.24-1.48-.73-1.81-.49-.34-1.12-.51-1.9-.51h-.96Z"/>
            <path class="cls-11" d="M245.34,132.32c.77-.09,1.47-.18,2.11-.25.64-.09,1.32-.13,2.04-.13.85,0,1.7.1,2.56.29.85.19,1.62.52,2.28,1,.67.47,1.21,1.12,1.63,1.93.42.82.63,1.85.63,3.1,0,.67-.06,1.28-.2,1.82-.13.53-.3,1.01-.51,1.43-.21.42-.44.78-.7,1.08-.26.31-.51.58-.76.79l3.64,8.39c-.38.07-.78.13-1.23.17-.44.04-.84.05-1.2.05-.31,0-.67-.02-1.09-.05-.41-.04-.77-.09-1.08-.17l-3.3-8.91.21-.14c.18-.1.39-.28.62-.54.22-.25.44-.55.63-.91.19-.36.35-.75.49-1.19.13-.44.2-.89.2-1.36,0-.91-.22-1.58-.66-1.99-.43-.42-.97-.63-1.6-.63-.16,0-.29.01-.39.03-.21.06-.21,15.63-.21,15.63-.82.17-1.5.25-2.02.25-.58,0-1.27-.08-2.08-.25v-19.45Z"/>
            <path class="cls-11" d="M263.61,151.8c-.36.08-.69.13-.99.17-.29.03-.59.05-.87.05s-.6-.02-.96-.06c-.36-.05-.77-.12-1.22-.21l5.21-19.45c.4-.05.77-.09,1.13-.14.35-.03.7-.05,1.06-.05.3,0,.62.02.97.05.35.04.75.09,1.2.14l5.15,19.47c-.89.17-1.66.25-2.34.25-.31,0-.61-.02-.93-.05-.31-.04-.65-.09-1-.17l-.88-3.78c-.44.14-.85.25-1.25.33-.39.07-.79.11-1.18.11-.36,0-.72-.04-1.09-.1-.37-.06-.76-.16-1.17-.29l-.85,3.73ZM266.86,137.42l-1.56,7c.27.09.52.17.75.22.24.06.48.09.72.09.27,0,.53-.02.78-.07.26-.04.53-.11.81-.21l-1.49-7.02Z"/>
            <path class="cls-11" d="M276.97,132.32c.76-.09,1.46-.18,2.11-.25.65-.08,1.32-.13,2.04-.13.85,0,1.71.1,2.56.29.85.19,1.62.52,2.28,1,.67.47,1.21,1.12,1.64,1.93.42.82.63,1.85.63,3.1,0,.67-.07,1.28-.2,1.82-.13.53-.3,1.01-.51,1.43-.21.42-.44.78-.7,1.08-.26.31-.51.58-.76.79l3.63,8.39c-.38.07-.78.13-1.22.17-.44.04-.84.05-1.21.05-.31,0-.67-.02-1.08-.05-.41-.04-.78-.09-1.08-.17l-3.31-8.91c.39-.24.6-.42.82-.68.23-.25.44-.55.64-.91.19-.36.36-.75.49-1.19.13-.44.2-.89.2-1.36,0-.91-.22-1.58-.65-1.99-.44-.42-.97-.63-1.61-.63-.16,0-.28.01-.39.03-.21.06-.21,15.63-.21,15.63-.82.17-1.5.25-2.02.25-.58,0-1.27-.08-2.08-.25v-19.45Z"/>
            <path class="cls-11" d="M300.01,132.32c.36-.07.73-.12,1.12-.16.38-.03.78-.05,1.18-.05.27,0,.6.02,1.03.07.42.05.77.1,1.07.15l-5.19,12.5v6.95c-.82.17-1.51.25-2.06.25s-1.26-.08-2.07-.25v-6.95c-.41-.98-.83-2-1.27-3.06-.44-1.07-.88-2.13-1.32-3.19-.44-1.06-.88-2.12-1.32-3.18-.44-1.07-.85-2.09-1.26-3.07.26-.05.62-.1,1.07-.15.46-.05.88-.07,1.29-.07.33,0,.68.02,1.08.07.39.05.74.1,1.04.15l2.86,7.58,2.74-7.58Z"/>
          </g>
          <g>
            <path class="cls-4" d="M264.36,63.62c-4.38,0-7.36,3.55-7.36,3.55v21.49s2.99-3.56,7.36-3.56c4.77,0,8.24,3.56,12.4,3.56v-21.49c-4.16,0-7.62-3.55-12.4-3.55Z"/>
            <path class="cls-4" d="M249.64,63.62c4.38,0,7.36,3.55,7.36,3.55v21.49s-2.99-3.56-7.36-3.56c-4.77,0-8.24,3.56-12.4,3.56v-21.49c4.16,0,7.63-3.55,12.4-3.55Z"/>
            <path class="cls-11" d="M264.36,58.91c-4.38,0-7.36,3.55-7.36,3.55v21.49s2.99-3.55,7.36-3.55c4.77,0,8.24,3.55,12.4,3.55v-21.49c-4.16,0-7.62-3.55-12.4-3.55Z"/>
            <path class="cls-11" d="M249.64,58.91c4.38,0,7.36,3.55,7.36,3.55v21.49s-2.99-3.55-7.36-3.55c-4.77,0-8.24,3.55-12.4,3.55v-21.49c4.16,0,7.63-3.55,12.4-3.55Z"/>
            <path class="cls-22" d="M255.49,82.57v-21.49c-1.3-1-3.33-2.17-5.85-2.17v21.49c2.52,0,4.55,1.18,5.85,2.18Z"/>
            <path class="cls-22" d="M273.02,83.12v-21.48c-2.7-1.06-5.37-2.72-8.66-2.72v21.49c3.28,0,5.96,1.67,8.66,2.72Z"/>
            <path class="cls-1" d="M258.51,82.57v-21.49c1.3-1,3.33-2.17,5.85-2.17v21.49c-2.52,0-4.55,1.18-5.85,2.18Z"/>
            <path class="cls-1" d="M240.98,83.12v-21.48c2.7-1.06,5.37-2.72,8.66-2.72v21.49c-3.28,0-5.96,1.67-8.66,2.72Z"/>
          </g>
        </g>
        <g>
          <rect class="cls-14" x="19.82" y="163.44" width="474.36" height="21.32"/>
          <rect class="cls-14" y="184.76" width="514" height="28.27"/>
          <g class="cls-24">
            <g>
              <path class="cls-3" d="M14.87,193.01c-3.62,0-6.55,3.43-6.55,7.66v12.35h13.09v-12.35c0-4.23-2.93-7.66-6.55-7.66Z"/>
              <path class="cls-3" d="M40.35,193.01c-3.61,0-6.54,3.43-6.54,7.66v12.35h13.1v-12.35c0-4.23-2.94-7.66-6.56-7.66Z"/>
              <path class="cls-3" d="M65.84,193.01c-3.61,0-6.55,3.43-6.55,7.66v12.35h13.1v-12.35c0-4.23-2.94-7.66-6.56-7.66Z"/>
              <path class="cls-3" d="M91.33,193.01c-3.61,0-6.55,3.43-6.55,7.66v12.35h13.1v-12.35c0-4.23-2.94-7.66-6.55-7.66Z"/>
              <path class="cls-3" d="M116.82,193.01c-3.62,0-6.55,3.43-6.55,7.66v12.35h13.1v-12.35c0-4.23-2.93-7.66-6.55-7.66Z"/>
              <path class="cls-3" d="M142.3,193.01c-3.61,0-6.55,3.43-6.55,7.66v12.35h13.1v-12.35c0-4.23-2.93-7.66-6.55-7.66Z"/>
              <path class="cls-3" d="M167.79,193.01c-3.61,0-6.55,3.43-6.55,7.66v12.35h13.1v-12.35c0-4.23-2.93-7.66-6.55-7.66Z"/>
              <path class="cls-3" d="M193.28,193.01c-3.61,0-6.55,3.43-6.55,7.66v12.35h13.1v-12.35c0-4.23-2.94-7.66-6.56-7.66Z"/>
              <path class="cls-3" d="M218.76,193.01c-3.61,0-6.55,3.43-6.55,7.66v12.35h13.1v-12.35c0-4.23-2.94-7.66-6.56-7.66Z"/>
              <path class="cls-3" d="M244.25,193.01c-3.62,0-6.55,3.43-6.55,7.66v12.35h13.09v-12.35c0-4.23-2.93-7.66-6.55-7.66Z"/>
              <path class="cls-3" d="M269.74,193.01c-3.62,0-6.55,3.43-6.55,7.66v12.35h13.1v-12.35c0-4.23-2.93-7.66-6.55-7.66Z"/>
              <path class="cls-3" d="M295.23,193.01c-3.62,0-6.55,3.43-6.55,7.66v12.35h13.09v-12.35c0-4.23-2.93-7.66-6.55-7.66Z"/>
              <path class="cls-3" d="M320.72,193.01c-3.62,0-6.55,3.43-6.55,7.66v12.35h13.1v-12.35c0-4.23-2.93-7.66-6.55-7.66Z"/>
              <path class="cls-3" d="M346.21,193.01c-3.62,0-6.55,3.43-6.55,7.66v12.35h13.1v-12.35c0-4.23-2.94-7.66-6.55-7.66Z"/>
              <path class="cls-3" d="M371.69,193.01c-3.62,0-6.55,3.43-6.55,7.66v12.35h13.1v-12.35c0-4.23-2.93-7.66-6.55-7.66Z"/>
              <path class="cls-3" d="M397.18,193.01c-3.62,0-6.55,3.43-6.55,7.66v12.35h13.1v-12.35c0-4.23-2.94-7.66-6.55-7.66Z"/>
              <path class="cls-3" d="M422.66,193.01c-3.61,0-6.54,3.43-6.54,7.66v12.35h13.09v-12.35c0-4.23-2.93-7.66-6.56-7.66Z"/>
              <path class="cls-3" d="M448.15,193.01c-3.61,0-6.55,3.43-6.55,7.66v12.35h13.1v-12.35c0-4.23-2.93-7.66-6.55-7.66Z"/>
              <path class="cls-3" d="M473.64,193.01c-3.61,0-6.54,3.43-6.54,7.66v12.35h13.09v-12.35c0-4.23-2.93-7.66-6.55-7.66Z"/>
              <path class="cls-3" d="M499.13,193.01c-3.62,0-6.55,3.43-6.55,7.66v12.35h13.1v-12.35c0-4.23-2.93-7.66-6.55-7.66Z"/>
            </g>
          </g>
          <path class="cls-19" d="M373.46,193.01h-232.92c-5.51,0-9.98,5.23-9.98,11.67v8.34h252.89v-8.34c0-6.44-4.47-11.67-9.98-11.67Z"/>
          <rect class="cls-19" x="19.82" y="159.55" width="474.36" height="3.89"/>
          <rect class="cls-4" x="130.55" y="205.86" width="252.89" height="7.17"/>
          <rect class="cls-18" x="0" y="180.87" width="514" height="3.89"/>
        </g>
      </g>
    </g>
  </g>
</svg>